ISO-10303-21;
HEADER;
/* Generated by software containing ST-Developer
 * from STEP Tools, Inc. (www.steptools.com) 
 */

FILE_DESCRIPTION(
/* description */ (''),
/* implementation_level */ '2;1');

FILE_NAME(
/* name */ '',
/* time_stamp */ '2025-11-30T16:43:08+02:00',
/* author */ ('lizab'),
/* organization */ (''),
/* preprocessor_version */ 'ST-DEVELOPER v20.1',
/* originating_system */ 'Autodesk Inventor 2026',
/* authorisation */ '');

FILE_SCHEMA (('AUTOMOTIVE_DESIGN { 1 0 10303 214 3 1 1 }'));
ENDSEC;

DATA;
#10=MECHANICAL_DESIGN_GEOMETRIC_PRESENTATION_REPRESENTATION('',(#13,#14,
#15,#16,#17,#18,#19,#20,#21,#22,#23,#24,#25,#26,#27,#28,#29),#698);
#11=SHAPE_REPRESENTATION_RELATIONSHIP('SRR','None',#705,#12);
#12=ADVANCED_BREP_SHAPE_REPRESENTATION('',(#30,#31,#32),#697);
#13=STYLED_ITEM('',(#714),#30);
#14=STYLED_ITEM('',(#715),#355);
#15=STYLED_ITEM('',(#715),#356);
#16=STYLED_ITEM('',(#715),#357);
#17=STYLED_ITEM('',(#715),#358);
#18=STYLED_ITEM('',(#716),#359);
#19=STYLED_ITEM('',(#716),#360);
#20=STYLED_ITEM('',(#715),#361);
#21=STYLED_ITEM('',(#714),#31);
#22=STYLED_ITEM('',(#715),#362);
#23=STYLED_ITEM('',(#715),#363);
#24=STYLED_ITEM('',(#715),#364);
#25=STYLED_ITEM('',(#715),#365);
#26=STYLED_ITEM('',(#716),#366);
#27=STYLED_ITEM('',(#716),#367);
#28=STYLED_ITEM('',(#715),#368);
#29=STYLED_ITEM('',(#714),#32);
#30=MANIFOLD_SOLID_BREP('\X2\04220432043504400434043E0435\X0\ \X2\04420435043B043E\X0\1',
#369);
#31=MANIFOLD_SOLID_BREP('\X2\04220432043504400434043E0435\X0\ \X2\04420435043B043E\X0\2',
#370);
#32=MANIFOLD_SOLID_BREP('\X2\04220432043504400434043E0435\X0\ \X2\04420435043B043E\X0\3',
#371);
#33=CONICAL_SURFACE('',#415,1.7,0.479519291992596);
#34=FACE_BOUND('',#108,.T.);
#35=FACE_BOUND('',#114,.T.);
#36=FACE_BOUND('',#123,.T.);
#37=FACE_BOUND('',#131,.T.);
#38=PLANE('',#402);
#39=PLANE('',#406);
#40=PLANE('',#420);
#41=PLANE('',#422);
#42=PLANE('',#434);
#43=PLANE('',#438);
#44=PLANE('',#439);
#45=PLANE('',#450);
#46=PLANE('',#454);
#47=PLANE('',#455);
#48=LINE('',#605,#58);
#49=LINE('',#625,#59);
#50=LINE('',#630,#60);
#51=LINE('',#640,#61);
#52=LINE('',#645,#62);
#53=LINE('',#657,#63);
#54=LINE('',#664,#64);
#55=LINE('',#672,#65);
#56=LINE('',#684,#66);
#57=LINE('',#691,#67);
#58=VECTOR('',#472,3.);
#59=VECTOR('',#499,3.);
#60=VECTOR('',#506,1.7);
#61=VECTOR('',#521,2.5);
#62=VECTOR('',#526,0.25);
#63=VECTOR('',#541,0.25);
#64=VECTOR('',#550,0.4);
#65=VECTOR('',#561,0.25);
#66=VECTOR('',#576,0.25);
#67=VECTOR('',#585,0.4);
#68=CYLINDRICAL_SURFACE('',#399,3.);
#69=CYLINDRICAL_SURFACE('',#413,3.);
#70=CYLINDRICAL_SURFACE('',#423,2.5);
#71=CYLINDRICAL_SURFACE('',#424,0.25);
#72=CYLINDRICAL_SURFACE('',#432,0.25);
#73=CYLINDRICAL_SURFACE('',#435,0.4);
#74=CYLINDRICAL_SURFACE('',#440,0.25);
#75=CYLINDRICAL_SURFACE('',#448,0.25);
#76=CYLINDRICAL_SURFACE('',#451,0.4);
#77=FACE_OUTER_BOUND('',#103,.T.);
#78=FACE_OUTER_BOUND('',#104,.T.);
#79=FACE_OUTER_BOUND('',#105,.T.);
#80=FACE_OUTER_BOUND('',#106,.T.);
#81=FACE_OUTER_BOUND('',#107,.T.);
#82=FACE_OUTER_BOUND('',#109,.T.);
#83=FACE_OUTER_BOUND('',#110,.T.);
#84=FACE_OUTER_BOUND('',#111,.T.);
#85=FACE_OUTER_BOUND('',#112,.T.);
#86=FACE_OUTER_BOUND('',#113,.T.);
#87=FACE_OUTER_BOUND('',#115,.T.);
#88=FACE_OUTER_BOUND('',#116,.T.);
#89=FACE_OUTER_BOUND('',#117,.T.);
#90=FACE_OUTER_BOUND('',#118,.T.);
#91=FACE_OUTER_BOUND('',#119,.T.);
#92=FACE_OUTER_BOUND('',#120,.T.);
#93=FACE_OUTER_BOUND('',#121,.T.);
#94=FACE_OUTER_BOUND('',#122,.T.);
#95=FACE_OUTER_BOUND('',#124,.T.);
#96=FACE_OUTER_BOUND('',#125,.T.);
#97=FACE_OUTER_BOUND('',#126,.T.);
#98=FACE_OUTER_BOUND('',#127,.T.);
#99=FACE_OUTER_BOUND('',#128,.T.);
#100=FACE_OUTER_BOUND('',#129,.T.);
#101=FACE_OUTER_BOUND('',#130,.T.);
#102=FACE_OUTER_BOUND('',#132,.T.);
#103=EDGE_LOOP('',(#245,#246,#247,#248,#249));
#104=EDGE_LOOP('',(#250,#251,#252,#253,#254,#255));
#105=EDGE_LOOP('',(#256));
#106=EDGE_LOOP('',(#257,#258,#259,#260,#261));
#107=EDGE_LOOP('',(#262));
#108=EDGE_LOOP('',(#263));
#109=EDGE_LOOP('',(#264,#265,#266,#267,#268));
#110=EDGE_LOOP('',(#269,#270,#271,#272));
#111=EDGE_LOOP('',(#273,#274,#275,#276,#277));
#112=EDGE_LOOP('',(#278,#279,#280,#281));
#113=EDGE_LOOP('',(#282));
#114=EDGE_LOOP('',(#283));
#115=EDGE_LOOP('',(#284));
#116=EDGE_LOOP('',(#285,#286,#287,#288));
#117=EDGE_LOOP('',(#289,#290,#291,#292,#293));
#118=EDGE_LOOP('',(#294,#295,#296,#297,#298,#299));
#119=EDGE_LOOP('',(#300,#301,#302,#303,#304));
#120=EDGE_LOOP('',(#305));
#121=EDGE_LOOP('',(#306,#307,#308,#309));
#122=EDGE_LOOP('',(#310));
#123=EDGE_LOOP('',(#311));
#124=EDGE_LOOP('',(#312));
#125=EDGE_LOOP('',(#313,#314,#315,#316,#317));
#126=EDGE_LOOP('',(#318,#319,#320,#321,#322,#323));
#127=EDGE_LOOP('',(#324,#325,#326,#327,#328));
#128=EDGE_LOOP('',(#329));
#129=EDGE_LOOP('',(#330,#331,#332,#333));
#130=EDGE_LOOP('',(#334));
#131=EDGE_LOOP('',(#335));
#132=EDGE_LOOP('',(#336));
#133=CIRCLE('',#395,3.);
#134=CIRCLE('',#396,3.);
#135=CIRCLE('',#397,0.3);
#136=CIRCLE('',#398,2.7);
#137=CIRCLE('',#400,3.);
#138=CIRCLE('',#401,3.);
#139=CIRCLE('',#404,2.7);
#140=CIRCLE('',#405,0.3);
#141=CIRCLE('',#407,2.5);
#142=CIRCLE('',#409,2.96616504037038);
#143=CIRCLE('',#410,0.3);
#144=CIRCLE('',#411,3.);
#145=CIRCLE('',#412,2.96616504037038);
#146=CIRCLE('',#414,3.);
#147=CIRCLE('',#416,0.4);
#148=CIRCLE('',#418,0.2);
#149=CIRCLE('',#419,2.8);
#150=CIRCLE('',#421,2.5);
#151=CIRCLE('',#425,0.25);
#152=CIRCLE('',#426,0.25);
#153=CIRCLE('',#427,0.25);
#154=CIRCLE('',#429,0.749999999999997);
#155=CIRCLE('',#430,0.25);
#156=CIRCLE('',#431,0.25);
#157=CIRCLE('',#433,0.25);
#158=CIRCLE('',#436,0.4);
#159=CIRCLE('',#437,0.4);
#160=CIRCLE('',#441,0.25);
#161=CIRCLE('',#442,0.25);
#162=CIRCLE('',#443,0.25);
#163=CIRCLE('',#445,0.75);
#164=CIRCLE('',#446,0.25);
#165=CIRCLE('',#447,0.25);
#166=CIRCLE('',#449,0.25);
#167=CIRCLE('',#452,0.4);
#168=CIRCLE('',#453,0.4);
#169=VERTEX_POINT('',#594);
#170=VERTEX_POINT('',#595);
#171=VERTEX_POINT('',#598);
#172=VERTEX_POINT('',#602);
#173=VERTEX_POINT('',#603);
#174=VERTEX_POINT('',#609);
#175=VERTEX_POINT('',#613);
#176=VERTEX_POINT('',#616);
#177=VERTEX_POINT('',#617);
#178=VERTEX_POINT('',#619);
#179=VERTEX_POINT('',#624);
#180=VERTEX_POINT('',#628);
#181=VERTEX_POINT('',#632);
#182=VERTEX_POINT('',#636);
#183=VERTEX_POINT('',#642);
#184=VERTEX_POINT('',#644);
#185=VERTEX_POINT('',#646);
#186=VERTEX_POINT('',#650);
#187=VERTEX_POINT('',#652);
#188=VERTEX_POINT('',#656);
#189=VERTEX_POINT('',#661);
#190=VERTEX_POINT('',#663);
#191=VERTEX_POINT('',#669);
#192=VERTEX_POINT('',#671);
#193=VERTEX_POINT('',#673);
#194=VERTEX_POINT('',#677);
#195=VERTEX_POINT('',#679);
#196=VERTEX_POINT('',#683);
#197=VERTEX_POINT('',#688);
#198=VERTEX_POINT('',#690);
#199=EDGE_CURVE('',#169,#170,#133,.T.);
#200=EDGE_CURVE('',#170,#169,#134,.T.);
#201=EDGE_CURVE('',#169,#171,#135,.T.);
#202=EDGE_CURVE('',#171,#171,#136,.T.);
#203=EDGE_CURVE('',#172,#173,#137,.T.);
#204=EDGE_CURVE('',#172,#170,#48,.T.);
#205=EDGE_CURVE('',#173,#172,#138,.T.);
#206=EDGE_CURVE('',#174,#174,#139,.T.);
#207=EDGE_CURVE('',#174,#173,#140,.T.);
#208=EDGE_CURVE('',#175,#175,#141,.T.);
#209=EDGE_CURVE('',#176,#177,#142,.T.);
#210=EDGE_CURVE('',#177,#178,#143,.T.);
#211=EDGE_CURVE('',#178,#178,#144,.T.);
#212=EDGE_CURVE('',#177,#176,#145,.T.);
#213=EDGE_CURVE('',#178,#179,#49,.T.);
#214=EDGE_CURVE('',#179,#179,#146,.T.);
#215=EDGE_CURVE('',#180,#180,#147,.T.);
#216=EDGE_CURVE('',#180,#176,#50,.T.);
#217=EDGE_CURVE('',#179,#181,#148,.T.);
#218=EDGE_CURVE('',#181,#181,#149,.T.);
#219=EDGE_CURVE('',#182,#182,#150,.T.);
#220=EDGE_CURVE('',#182,#175,#51,.T.);
#221=EDGE_CURVE('',#183,#183,#151,.T.);
#222=EDGE_CURVE('',#183,#184,#52,.T.);
#223=EDGE_CURVE('',#184,#185,#152,.T.);
#224=EDGE_CURVE('',#185,#184,#153,.T.);
#225=EDGE_CURVE('',#185,#186,#154,.T.);
#226=EDGE_CURVE('',#186,#187,#155,.T.);
#227=EDGE_CURVE('',#187,#186,#156,.T.);
#228=EDGE_CURVE('',#187,#188,#53,.T.);
#229=EDGE_CURVE('',#188,#188,#157,.T.);
#230=EDGE_CURVE('',#189,#189,#158,.T.);
#231=EDGE_CURVE('',#189,#190,#54,.T.);
#232=EDGE_CURVE('',#190,#190,#159,.T.);
#233=EDGE_CURVE('',#191,#191,#160,.T.);
#234=EDGE_CURVE('',#191,#192,#55,.T.);
#235=EDGE_CURVE('',#193,#192,#161,.T.);
#236=EDGE_CURVE('',#192,#193,#162,.T.);
#237=EDGE_CURVE('',#193,#194,#163,.T.);
#238=EDGE_CURVE('',#195,#194,#164,.T.);
#239=EDGE_CURVE('',#194,#195,#165,.T.);
#240=EDGE_CURVE('',#195,#196,#56,.T.);
#241=EDGE_CURVE('',#196,#196,#166,.T.);
#242=EDGE_CURVE('',#197,#197,#167,.T.);
#243=EDGE_CURVE('',#197,#198,#57,.T.);
#244=EDGE_CURVE('',#198,#198,#168,.T.);
#245=ORIENTED_EDGE('',*,*,#199,.T.);
#246=ORIENTED_EDGE('',*,*,#200,.T.);
#247=ORIENTED_EDGE('',*,*,#201,.T.);
#248=ORIENTED_EDGE('',*,*,#202,.T.);
#249=ORIENTED_EDGE('',*,*,#201,.F.);
#250=ORIENTED_EDGE('',*,*,#203,.F.);
#251=ORIENTED_EDGE('',*,*,#204,.T.);
#252=ORIENTED_EDGE('',*,*,#199,.F.);
#253=ORIENTED_EDGE('',*,*,#200,.F.);
#254=ORIENTED_EDGE('',*,*,#204,.F.);
#255=ORIENTED_EDGE('',*,*,#205,.F.);
#256=ORIENTED_EDGE('',*,*,#202,.F.);
#257=ORIENTED_EDGE('',*,*,#206,.T.);
#258=ORIENTED_EDGE('',*,*,#207,.T.);
#259=ORIENTED_EDGE('',*,*,#205,.T.);
#260=ORIENTED_EDGE('',*,*,#203,.T.);
#261=ORIENTED_EDGE('',*,*,#207,.F.);
#262=ORIENTED_EDGE('',*,*,#206,.F.);
#263=ORIENTED_EDGE('',*,*,#208,.T.);
#264=ORIENTED_EDGE('',*,*,#209,.T.);
#265=ORIENTED_EDGE('',*,*,#210,.T.);
#266=ORIENTED_EDGE('',*,*,#211,.T.);
#267=ORIENTED_EDGE('',*,*,#210,.F.);
#268=ORIENTED_EDGE('',*,*,#212,.T.);
#269=ORIENTED_EDGE('',*,*,#211,.F.);
#270=ORIENTED_EDGE('',*,*,#213,.T.);
#271=ORIENTED_EDGE('',*,*,#214,.F.);
#272=ORIENTED_EDGE('',*,*,#213,.F.);
#273=ORIENTED_EDGE('',*,*,#215,.T.);
#274=ORIENTED_EDGE('',*,*,#216,.T.);
#275=ORIENTED_EDGE('',*,*,#212,.F.);
#276=ORIENTED_EDGE('',*,*,#209,.F.);
#277=ORIENTED_EDGE('',*,*,#216,.F.);
#278=ORIENTED_EDGE('',*,*,#214,.T.);
#279=ORIENTED_EDGE('',*,*,#217,.T.);
#280=ORIENTED_EDGE('',*,*,#218,.T.);
#281=ORIENTED_EDGE('',*,*,#217,.F.);
#282=ORIENTED_EDGE('',*,*,#218,.F.);
#283=ORIENTED_EDGE('',*,*,#219,.T.);
#284=ORIENTED_EDGE('',*,*,#215,.F.);
#285=ORIENTED_EDGE('',*,*,#219,.F.);
#286=ORIENTED_EDGE('',*,*,#220,.T.);
#287=ORIENTED_EDGE('',*,*,#208,.F.);
#288=ORIENTED_EDGE('',*,*,#220,.F.);
#289=ORIENTED_EDGE('',*,*,#221,.F.);
#290=ORIENTED_EDGE('',*,*,#222,.T.);
#291=ORIENTED_EDGE('',*,*,#223,.T.);
#292=ORIENTED_EDGE('',*,*,#224,.T.);
#293=ORIENTED_EDGE('',*,*,#222,.F.);
#294=ORIENTED_EDGE('',*,*,#223,.F.);
#295=ORIENTED_EDGE('',*,*,#224,.F.);
#296=ORIENTED_EDGE('',*,*,#225,.T.);
#297=ORIENTED_EDGE('',*,*,#226,.T.);
#298=ORIENTED_EDGE('',*,*,#227,.T.);
#299=ORIENTED_EDGE('',*,*,#225,.F.);
#300=ORIENTED_EDGE('',*,*,#227,.F.);
#301=ORIENTED_EDGE('',*,*,#228,.T.);
#302=ORIENTED_EDGE('',*,*,#229,.F.);
#303=ORIENTED_EDGE('',*,*,#228,.F.);
#304=ORIENTED_EDGE('',*,*,#226,.F.);
#305=ORIENTED_EDGE('',*,*,#221,.T.);
#306=ORIENTED_EDGE('',*,*,#230,.F.);
#307=ORIENTED_EDGE('',*,*,#231,.T.);
#308=ORIENTED_EDGE('',*,*,#232,.T.);
#309=ORIENTED_EDGE('',*,*,#231,.F.);
#310=ORIENTED_EDGE('',*,*,#230,.T.);
#311=ORIENTED_EDGE('',*,*,#229,.T.);
#312=ORIENTED_EDGE('',*,*,#232,.F.);
#313=ORIENTED_EDGE('',*,*,#233,.T.);
#314=ORIENTED_EDGE('',*,*,#234,.T.);
#315=ORIENTED_EDGE('',*,*,#235,.F.);
#316=ORIENTED_EDGE('',*,*,#236,.F.);
#317=ORIENTED_EDGE('',*,*,#234,.F.);
#318=ORIENTED_EDGE('',*,*,#236,.T.);
#319=ORIENTED_EDGE('',*,*,#237,.T.);
#320=ORIENTED_EDGE('',*,*,#238,.F.);
#321=ORIENTED_EDGE('',*,*,#239,.F.);
#322=ORIENTED_EDGE('',*,*,#237,.F.);
#323=ORIENTED_EDGE('',*,*,#235,.T.);
#324=ORIENTED_EDGE('',*,*,#238,.T.);
#325=ORIENTED_EDGE('',*,*,#239,.T.);
#326=ORIENTED_EDGE('',*,*,#240,.T.);
#327=ORIENTED_EDGE('',*,*,#241,.T.);
#328=ORIENTED_EDGE('',*,*,#240,.F.);
#329=ORIENTED_EDGE('',*,*,#233,.F.);
#330=ORIENTED_EDGE('',*,*,#242,.T.);
#331=ORIENTED_EDGE('',*,*,#243,.T.);
#332=ORIENTED_EDGE('',*,*,#244,.F.);
#333=ORIENTED_EDGE('',*,*,#243,.F.);
#334=ORIENTED_EDGE('',*,*,#242,.F.);
#335=ORIENTED_EDGE('',*,*,#241,.F.);
#336=ORIENTED_EDGE('',*,*,#244,.T.);
#337=TOROIDAL_SURFACE('',#394,2.7,0.3);
#338=TOROIDAL_SURFACE('',#403,2.7,0.3);
#339=TOROIDAL_SURFACE('',#408,2.7,0.3);
#340=TOROIDAL_SURFACE('',#417,2.8,0.2);
#341=TOROIDAL_SURFACE('',#428,1.,0.25);
#342=TOROIDAL_SURFACE('',#444,1.,0.25);
#343=ADVANCED_FACE('',(#77),#337,.T.);
#344=ADVANCED_FACE('',(#78),#68,.T.);
#345=ADVANCED_FACE('',(#79),#38,.F.);
#346=ADVANCED_FACE('',(#80),#338,.T.);
#347=ADVANCED_FACE('',(#81,#34),#39,.T.);
#348=ADVANCED_FACE('',(#82),#339,.T.);
#349=ADVANCED_FACE('',(#83),#69,.T.);
#350=ADVANCED_FACE('',(#84),#33,.T.);
#351=ADVANCED_FACE('',(#85),#340,.T.);
#352=ADVANCED_FACE('',(#86,#35),#40,.F.);
#353=ADVANCED_FACE('',(#87),#41,.T.);
#354=ADVANCED_FACE('',(#88),#70,.T.);
#355=ADVANCED_FACE('',(#89),#71,.T.);
#356=ADVANCED_FACE('',(#90),#341,.T.);
#357=ADVANCED_FACE('',(#91),#72,.T.);
#358=ADVANCED_FACE('',(#92),#42,.T.);
#359=ADVANCED_FACE('',(#93),#73,.T.);
#360=ADVANCED_FACE('',(#94,#36),#43,.T.);
#361=ADVANCED_FACE('',(#95),#44,.F.);
#362=ADVANCED_FACE('',(#96),#74,.T.);
#363=ADVANCED_FACE('',(#97),#342,.T.);
#364=ADVANCED_FACE('',(#98),#75,.T.);
#365=ADVANCED_FACE('',(#99),#45,.F.);
#366=ADVANCED_FACE('',(#100),#76,.T.);
#367=ADVANCED_FACE('',(#101,#37),#46,.F.);
#368=ADVANCED_FACE('',(#102),#47,.T.);
#369=CLOSED_SHELL('',(#343,#344,#345,#346,#347,#348,#349,#350,#351,#352,
#353,#354));
#370=CLOSED_SHELL('',(#355,#356,#357,#358,#359,#360,#361));
#371=CLOSED_SHELL('',(#362,#363,#364,#365,#366,#367,#368));
#372=DERIVED_UNIT_ELEMENT(#375,1.);
#373=DERIVED_UNIT_ELEMENT(#700,-3.);
#374=DIMENSIONAL_EXPONENTS(0.,1.,0.,0.,0.,0.,0.);
#375=(
CONVERSION_BASED_UNIT('gram',#377)
MASS_UNIT()
NAMED_UNIT(#374)
);
#376=(
MASS_UNIT()
NAMED_UNIT(*)
SI_UNIT(.KILO.,.GRAM.)
);
#377=MASS_MEASURE_WITH_UNIT(MASS_MEASURE(0.001),#376);
#378=DERIVED_UNIT((#372,#373));
#379=MEASURE_REPRESENTATION_ITEM('density measure',
POSITIVE_RATIO_MEASURE(1.),#378);
#380=PROPERTY_DEFINITION_REPRESENTATION(#385,#382);
#381=PROPERTY_DEFINITION_REPRESENTATION(#386,#383);
#382=REPRESENTATION('material name',(#384),#697);
#383=REPRESENTATION('density',(#379),#697);
#384=DESCRIPTIVE_REPRESENTATION_ITEM('\X2\04220438043F043E0432044B0435\X0\',
'\X2\04220438043F043E0432044B0435\X0\');
#385=PROPERTY_DEFINITION('material property','material name',#707);
#386=PROPERTY_DEFINITION('material property','density of part',#707);
#387=DATE_TIME_ROLE('creation_date');
#388=APPLIED_DATE_AND_TIME_ASSIGNMENT(#389,#387,(#707));
#389=DATE_AND_TIME(#390,#391);
#390=CALENDAR_DATE(2025,29,11);
#391=LOCAL_TIME(0,0,0.,#392);
#392=COORDINATED_UNIVERSAL_TIME_OFFSET(0,0,.BEHIND.);
#393=AXIS2_PLACEMENT_3D('',#592,#456,#457);
#394=AXIS2_PLACEMENT_3D('',#593,#458,#459);
#395=AXIS2_PLACEMENT_3D('',#596,#460,#461);
#396=AXIS2_PLACEMENT_3D('',#597,#462,#463);
#397=AXIS2_PLACEMENT_3D('',#599,#464,#465);
#398=AXIS2_PLACEMENT_3D('',#600,#466,#467);
#399=AXIS2_PLACEMENT_3D('',#601,#468,#469);
#400=AXIS2_PLACEMENT_3D('',#604,#470,#471);
#401=AXIS2_PLACEMENT_3D('',#606,#473,#474);
#402=AXIS2_PLACEMENT_3D('',#607,#475,#476);
#403=AXIS2_PLACEMENT_3D('',#608,#477,#478);
#404=AXIS2_PLACEMENT_3D('',#610,#479,#480);
#405=AXIS2_PLACEMENT_3D('',#611,#481,#482);
#406=AXIS2_PLACEMENT_3D('',#612,#483,#484);
#407=AXIS2_PLACEMENT_3D('',#614,#485,#486);
#408=AXIS2_PLACEMENT_3D('',#615,#487,#488);
#409=AXIS2_PLACEMENT_3D('',#618,#489,#490);
#410=AXIS2_PLACEMENT_3D('',#620,#491,#492);
#411=AXIS2_PLACEMENT_3D('',#621,#493,#494);
#412=AXIS2_PLACEMENT_3D('',#622,#495,#496);
#413=AXIS2_PLACEMENT_3D('',#623,#497,#498);
#414=AXIS2_PLACEMENT_3D('',#626,#500,#501);
#415=AXIS2_PLACEMENT_3D('',#627,#502,#503);
#416=AXIS2_PLACEMENT_3D('',#629,#504,#505);
#417=AXIS2_PLACEMENT_3D('',#631,#507,#508);
#418=AXIS2_PLACEMENT_3D('',#633,#509,#510);
#419=AXIS2_PLACEMENT_3D('',#634,#511,#512);
#420=AXIS2_PLACEMENT_3D('',#635,#513,#514);
#421=AXIS2_PLACEMENT_3D('',#637,#515,#516);
#422=AXIS2_PLACEMENT_3D('',#638,#517,#518);
#423=AXIS2_PLACEMENT_3D('',#639,#519,#520);
#424=AXIS2_PLACEMENT_3D('',#641,#522,#523);
#425=AXIS2_PLACEMENT_3D('',#643,#524,#525);
#426=AXIS2_PLACEMENT_3D('',#647,#527,#528);
#427=AXIS2_PLACEMENT_3D('',#648,#529,#530);
#428=AXIS2_PLACEMENT_3D('',#649,#531,#532);
#429=AXIS2_PLACEMENT_3D('',#651,#533,#534);
#430=AXIS2_PLACEMENT_3D('',#653,#535,#536);
#431=AXIS2_PLACEMENT_3D('',#654,#537,#538);
#432=AXIS2_PLACEMENT_3D('',#655,#539,#540);
#433=AXIS2_PLACEMENT_3D('',#658,#542,#543);
#434=AXIS2_PLACEMENT_3D('',#659,#544,#545);
#435=AXIS2_PLACEMENT_3D('',#660,#546,#547);
#436=AXIS2_PLACEMENT_3D('',#662,#548,#549);
#437=AXIS2_PLACEMENT_3D('',#665,#551,#552);
#438=AXIS2_PLACEMENT_3D('',#666,#553,#554);
#439=AXIS2_PLACEMENT_3D('',#667,#555,#556);
#440=AXIS2_PLACEMENT_3D('',#668,#557,#558);
#441=AXIS2_PLACEMENT_3D('',#670,#559,#560);
#442=AXIS2_PLACEMENT_3D('',#674,#562,#563);
#443=AXIS2_PLACEMENT_3D('',#675,#564,#565);
#444=AXIS2_PLACEMENT_3D('',#676,#566,#567);
#445=AXIS2_PLACEMENT_3D('',#678,#568,#569);
#446=AXIS2_PLACEMENT_3D('',#680,#570,#571);
#447=AXIS2_PLACEMENT_3D('',#681,#572,#573);
#448=AXIS2_PLACEMENT_3D('',#682,#574,#575);
#449=AXIS2_PLACEMENT_3D('',#685,#577,#578);
#450=AXIS2_PLACEMENT_3D('',#686,#579,#580);
#451=AXIS2_PLACEMENT_3D('',#687,#581,#582);
#452=AXIS2_PLACEMENT_3D('',#689,#583,#584);
#453=AXIS2_PLACEMENT_3D('',#692,#586,#587);
#454=AXIS2_PLACEMENT_3D('',#693,#588,#589);
#455=AXIS2_PLACEMENT_3D('',#694,#590,#591);
#456=DIRECTION('axis',(0.,0.,1.));
#457=DIRECTION('refdir',(1.,0.,0.));
#458=DIRECTION('center_axis',(1.,0.,0.));
#459=DIRECTION('ref_axis',(0.,0.,-1.));
#460=DIRECTION('center_axis',(-1.,0.,0.));
#461=DIRECTION('ref_axis',(0.,-1.,1.22464679914735E-16));
#462=DIRECTION('center_axis',(-1.,0.,0.));
#463=DIRECTION('ref_axis',(0.,-1.,1.22464679914735E-16));
#464=DIRECTION('center_axis',(0.,-1.,-1.22464679914735E-16));
#465=DIRECTION('ref_axis',(0.,-1.22464679914735E-16,1.));
#466=DIRECTION('center_axis',(1.,0.,0.));
#467=DIRECTION('ref_axis',(0.,-1.,1.22464679914735E-16));
#468=DIRECTION('center_axis',(1.,0.,0.));
#469=DIRECTION('ref_axis',(0.,1.,0.));
#470=DIRECTION('center_axis',(1.,0.,0.));
#471=DIRECTION('ref_axis',(0.,-1.,1.22464679914735E-16));
#472=DIRECTION('',(-1.,0.,0.));
#473=DIRECTION('center_axis',(1.,0.,0.));
#474=DIRECTION('ref_axis',(0.,-1.,1.22464679914735E-16));
#475=DIRECTION('center_axis',(1.,0.,0.));
#476=DIRECTION('ref_axis',(0.,0.,-1.));
#477=DIRECTION('center_axis',(1.,0.,0.));
#478=DIRECTION('ref_axis',(0.,0.,-1.));
#479=DIRECTION('center_axis',(-1.,0.,0.));
#480=DIRECTION('ref_axis',(0.,-1.,1.22464679914735E-16));
#481=DIRECTION('center_axis',(0.,-1.,-1.22464679914735E-16));
#482=DIRECTION('ref_axis',(0.,-1.22464679914735E-16,1.));
#483=DIRECTION('center_axis',(1.,0.,0.));
#484=DIRECTION('ref_axis',(0.,0.,-1.));
#485=DIRECTION('center_axis',(-1.,0.,0.));
#486=DIRECTION('ref_axis',(0.,0.,-1.));
#487=DIRECTION('center_axis',(1.,0.,0.));
#488=DIRECTION('ref_axis',(0.,0.,-1.));
#489=DIRECTION('center_axis',(-1.,0.,0.));
#490=DIRECTION('ref_axis',(0.,-6.12323399573677E-17,1.));
#491=DIRECTION('center_axis',(0.,-1.,-1.22464679914735E-16));
#492=DIRECTION('ref_axis',(0.,-1.22464679914735E-16,1.));
#493=DIRECTION('center_axis',(1.,0.,0.));
#494=DIRECTION('ref_axis',(0.,0.,1.));
#495=DIRECTION('center_axis',(-1.,0.,0.));
#496=DIRECTION('ref_axis',(0.,-6.12323399573677E-17,1.));
#497=DIRECTION('center_axis',(1.,0.,0.));
#498=DIRECTION('ref_axis',(0.,0.,-1.));
#499=DIRECTION('',(-1.,0.,0.));
#500=DIRECTION('center_axis',(-1.,0.,0.));
#501=DIRECTION('ref_axis',(0.,1.22464679914735E-16,1.));
#502=DIRECTION('center_axis',(-1.,0.,0.));
#503=DIRECTION('ref_axis',(0.,0.,1.));
#504=DIRECTION('center_axis',(-1.,0.,0.));
#505=DIRECTION('ref_axis',(0.,0.,1.));
#506=DIRECTION('',(-0.887216801234595,5.64994152206484E-17,-0.46135273664199));
#507=DIRECTION('center_axis',(1.,0.,0.));
#508=DIRECTION('ref_axis',(0.,0.,-1.));
#509=DIRECTION('center_axis',(0.,-1.,-1.22464679914735E-16));
#510=DIRECTION('ref_axis',(0.,-1.22464679914735E-16,1.));
#511=DIRECTION('center_axis',(1.,0.,0.));
#512=DIRECTION('ref_axis',(0.,1.22464679914735E-16,1.));
#513=DIRECTION('center_axis',(1.,0.,0.));
#514=DIRECTION('ref_axis',(0.,0.,-1.));
#515=DIRECTION('center_axis',(1.,0.,0.));
#516=DIRECTION('ref_axis',(0.,0.,-1.));
#517=DIRECTION('center_axis',(1.,0.,0.));
#518=DIRECTION('ref_axis',(0.,0.,-1.));
#519=DIRECTION('center_axis',(1.,0.,0.));
#520=DIRECTION('ref_axis',(0.,0.,-1.));
#521=DIRECTION('',(-1.,0.,0.));
#522=DIRECTION('center_axis',(-1.71512449944288E-15,-1.,0.));
#523=DIRECTION('ref_axis',(0.,0.,-1.));
#524=DIRECTION('center_axis',(-1.71512449944288E-15,-1.,0.));
#525=DIRECTION('ref_axis',(0.,0.,-1.));
#526=DIRECTION('',(1.71512449944288E-15,1.,0.));
#527=DIRECTION('center_axis',(-1.71512449944288E-15,-1.,0.));
#528=DIRECTION('ref_axis',(0.,0.,-1.));
#529=DIRECTION('center_axis',(-1.71512449944288E-15,-1.,0.));
#530=DIRECTION('ref_axis',(0.,0.,-1.));
#531=DIRECTION('center_axis',(0.,0.,-1.));
#532=DIRECTION('ref_axis',(-1.,0.,0.));
#533=DIRECTION('center_axis',(0.,0.,1.));
#534=DIRECTION('ref_axis',(-1.,0.,0.));
#535=DIRECTION('center_axis',(1.,0.,0.));
#536=DIRECTION('ref_axis',(0.,0.,-1.));
#537=DIRECTION('center_axis',(1.,0.,0.));
#538=DIRECTION('ref_axis',(0.,0.,-1.));
#539=DIRECTION('center_axis',(1.,0.,0.));
#540=DIRECTION('ref_axis',(0.,0.,-1.));
#541=DIRECTION('',(-1.,0.,0.));
#542=DIRECTION('center_axis',(-1.,0.,0.));
#543=DIRECTION('ref_axis',(0.,0.,-1.));
#544=DIRECTION('center_axis',(-1.71512449944288E-15,-1.,0.));
#545=DIRECTION('ref_axis',(0.,0.,-1.));
#546=DIRECTION('center_axis',(1.,0.,0.));
#547=DIRECTION('ref_axis',(0.,0.,-1.));
#548=DIRECTION('center_axis',(1.,0.,0.));
#549=DIRECTION('ref_axis',(0.,0.,-1.));
#550=DIRECTION('',(-1.,0.,0.));
#551=DIRECTION('center_axis',(1.,0.,0.));
#552=DIRECTION('ref_axis',(0.,0.,-1.));
#553=DIRECTION('center_axis',(1.,0.,0.));
#554=DIRECTION('ref_axis',(0.,0.,-1.));
#555=DIRECTION('center_axis',(1.,0.,0.));
#556=DIRECTION('ref_axis',(0.,0.,-1.));
#557=DIRECTION('center_axis',(-1.71512449944288E-15,1.,0.));
#558=DIRECTION('ref_axis',(0.,0.,-1.));
#559=DIRECTION('center_axis',(-1.71512449944288E-15,1.,0.));
#560=DIRECTION('ref_axis',(0.,0.,-1.));
#561=DIRECTION('',(-1.71512449944288E-15,1.,0.));
#562=DIRECTION('center_axis',(-1.71512449944288E-15,1.,0.));
#563=DIRECTION('ref_axis',(0.,0.,-1.));
#564=DIRECTION('center_axis',(-1.71512449944288E-15,1.,0.));
#565=DIRECTION('ref_axis',(0.,0.,-1.));
#566=DIRECTION('center_axis',(0.,0.,-1.));
#567=DIRECTION('ref_axis',(1.,0.,0.));
#568=DIRECTION('center_axis',(0.,0.,-1.));
#569=DIRECTION('ref_axis',(1.,0.,0.));
#570=DIRECTION('center_axis',(1.,0.,0.));
#571=DIRECTION('ref_axis',(0.,0.,-1.));
#572=DIRECTION('center_axis',(1.,0.,0.));
#573=DIRECTION('ref_axis',(0.,0.,-1.));
#574=DIRECTION('center_axis',(1.,0.,0.));
#575=DIRECTION('ref_axis',(0.,0.,-1.));
#576=DIRECTION('',(1.,0.,0.));
#577=DIRECTION('center_axis',(-1.,0.,0.));
#578=DIRECTION('ref_axis',(0.,0.,-1.));
#579=DIRECTION('center_axis',(-1.71512449944288E-15,1.,0.));
#580=DIRECTION('ref_axis',(0.,0.,-1.));
#581=DIRECTION('center_axis',(1.,0.,0.));
#582=DIRECTION('ref_axis',(0.,0.,-1.));
#583=DIRECTION('center_axis',(1.,0.,0.));
#584=DIRECTION('ref_axis',(0.,0.,-1.));
#585=DIRECTION('',(1.,0.,0.));
#586=DIRECTION('center_axis',(1.,0.,0.));
#587=DIRECTION('ref_axis',(0.,0.,-1.));
#588=DIRECTION('center_axis',(1.,0.,0.));
#589=DIRECTION('ref_axis',(0.,0.,-1.));
#590=DIRECTION('center_axis',(1.,0.,0.));
#591=DIRECTION('ref_axis',(0.,0.,-1.));
#592=CARTESIAN_POINT('',(0.,0.,0.));
#593=CARTESIAN_POINT('Origin',(0.3,0.,0.));
#594=CARTESIAN_POINT('',(0.3,-3.67394039744206E-16,3.));
#595=CARTESIAN_POINT('',(0.3,-3.,-3.67394039744206E-16));
#596=CARTESIAN_POINT('Origin',(0.3,0.,0.));
#597=CARTESIAN_POINT('Origin',(0.3,0.,0.));
#598=CARTESIAN_POINT('',(0.,-3.30654635769785E-16,2.7));
#599=CARTESIAN_POINT('Origin',(0.3,-3.30654635769785E-16,2.7));
#600=CARTESIAN_POINT('Origin',(0.,0.,0.));
#601=CARTESIAN_POINT('Origin',(0.,0.,0.));
#602=CARTESIAN_POINT('',(26.7,-3.,-3.67394039744206E-16));
#603=CARTESIAN_POINT('',(26.7,-3.67394039744206E-16,3.));
#604=CARTESIAN_POINT('Origin',(26.7,0.,0.));
#605=CARTESIAN_POINT('',(0.,-3.,-3.67394039744206E-16));
#606=CARTESIAN_POINT('Origin',(26.7,0.,0.));
#607=CARTESIAN_POINT('Origin',(0.,0.,0.));
#608=CARTESIAN_POINT('Origin',(26.7,0.,0.));
#609=CARTESIAN_POINT('',(27.,-3.30654635769785E-16,2.7));
#610=CARTESIAN_POINT('Origin',(27.,0.,0.));
#611=CARTESIAN_POINT('Origin',(26.7,-3.30654635769785E-16,2.7));
#612=CARTESIAN_POINT('Origin',(27.,0.,0.));
#613=CARTESIAN_POINT('',(27.,-3.06161699786838E-16,2.5));
#614=CARTESIAN_POINT('Origin',(27.,0.,0.));
#615=CARTESIAN_POINT('Origin',(28.1266614090644,0.,0.));
#616=CARTESIAN_POINT('',(28.265067230057,6.16297582203915E-32,-2.96616504037038));
#617=CARTESIAN_POINT('',(28.265067230057,-3.63250452243236E-16,2.96616504037038));
#618=CARTESIAN_POINT('Origin',(28.265067230057,1.81625226121618E-16,0.));
#619=CARTESIAN_POINT('',(28.1266614090644,-3.67394039744206E-16,3.));
#620=CARTESIAN_POINT('Origin',(28.1266614090644,-3.30654635769785E-16,2.7));
#621=CARTESIAN_POINT('Origin',(28.1266614090644,0.,0.));
#622=CARTESIAN_POINT('Origin',(28.265067230057,1.81625226121618E-16,0.));
#623=CARTESIAN_POINT('Origin',(27.7,0.,0.));
#624=CARTESIAN_POINT('',(27.9,-3.67394039744206E-16,3.));
#625=CARTESIAN_POINT('',(27.7,-3.67394039744206E-16,3.));
#626=CARTESIAN_POINT('Origin',(27.9,0.,0.));
#627=CARTESIAN_POINT('Origin',(30.7,0.,0.));
#628=CARTESIAN_POINT('',(33.2,-4.89858719658942E-17,-0.4));
#629=CARTESIAN_POINT('Origin',(33.2,0.,0.));
#630=CARTESIAN_POINT('',(30.7,2.0818995585505E-16,-1.7));
#631=CARTESIAN_POINT('Origin',(27.9,0.,0.));
#632=CARTESIAN_POINT('',(27.7,-3.42901103761259E-16,2.8));
#633=CARTESIAN_POINT('Origin',(27.9,-3.42901103761259E-16,2.8));
#634=CARTESIAN_POINT('Origin',(27.7,0.,0.));
#635=CARTESIAN_POINT('Origin',(27.7,0.,0.));
#636=CARTESIAN_POINT('',(27.7,-3.06161699786838E-16,2.5));
#637=CARTESIAN_POINT('Origin',(27.7,0.,0.));
#638=CARTESIAN_POINT('Origin',(33.2,0.,0.));
#639=CARTESIAN_POINT('Origin',(27.,0.,0.));
#640=CARTESIAN_POINT('',(27.,-3.06161699786838E-16,2.5));
#641=CARTESIAN_POINT('Origin',(39.6920235200653,1.06281984686023,0.));
#642=CARTESIAN_POINT('',(39.6920235200653,-18.9371801531398,0.25));
#643=CARTESIAN_POINT('Origin',(39.6920235200653,-18.9371801531398,0.));
#644=CARTESIAN_POINT('',(39.6920235200653,-1.,0.25));
#645=CARTESIAN_POINT('',(39.6920235200653,1.06281984686023,0.25));
#646=CARTESIAN_POINT('',(39.4420235200653,-1.,3.06161699786838E-17));
#647=CARTESIAN_POINT('Origin',(39.6920235200653,-1.,0.));
#648=CARTESIAN_POINT('Origin',(39.6920235200653,-1.,0.));
#649=CARTESIAN_POINT('Origin',(38.6920235200653,-1.,0.));
#650=CARTESIAN_POINT('',(38.6920235200653,-0.25,3.06161699786838E-17));
#651=CARTESIAN_POINT('Origin',(38.6920235200653,-1.,3.06161699786838E-17));
#652=CARTESIAN_POINT('',(38.6920235200653,-3.06161699786838E-17,0.25));
#653=CARTESIAN_POINT('Origin',(38.6920235200653,0.,0.));
#654=CARTESIAN_POINT('Origin',(38.6920235200653,0.,0.));
#655=CARTESIAN_POINT('Origin',(38.2,0.,0.));
#656=CARTESIAN_POINT('',(38.2,-3.06161699786838E-17,0.25));
#657=CARTESIAN_POINT('',(38.2,-3.06161699786838E-17,0.25));
#658=CARTESIAN_POINT('Origin',(38.2,0.,0.));
#659=CARTESIAN_POINT('Origin',(39.6920235200653,-18.9371801531398,0.));
#660=CARTESIAN_POINT('Origin',(33.2,0.,0.));
#661=CARTESIAN_POINT('',(38.2,-4.89858719658942E-17,0.4));
#662=CARTESIAN_POINT('Origin',(38.2,0.,0.));
#663=CARTESIAN_POINT('',(33.2,-4.89858719658942E-17,0.4));
#664=CARTESIAN_POINT('',(33.2,-4.89858719658942E-17,0.4));
#665=CARTESIAN_POINT('Origin',(33.2,0.,0.));
#666=CARTESIAN_POINT('Origin',(38.2,0.,0.));
#667=CARTESIAN_POINT('Origin',(33.2,0.,0.));
#668=CARTESIAN_POINT('Origin',(-6.48202352006535,1.06281984686023,0.));
#669=CARTESIAN_POINT('',(-6.48202352006531,-18.9371801531398,0.25));
#670=CARTESIAN_POINT('Origin',(-6.48202352006532,-18.9371801531398,0.));
#671=CARTESIAN_POINT('',(-6.48202352006534,-1.,0.25));
#672=CARTESIAN_POINT('',(-6.48202352006535,1.06281984686023,0.25));
#673=CARTESIAN_POINT('',(-6.23202352006534,-1.,3.06161699786838E-17));
#674=CARTESIAN_POINT('Origin',(-6.48202352006534,-1.,0.));
#675=CARTESIAN_POINT('Origin',(-6.48202352006534,-1.,0.));
#676=CARTESIAN_POINT('Origin',(-5.48202352006534,-1.,0.));
#677=CARTESIAN_POINT('',(-5.48202352006534,-0.25,3.06161699786838E-17));
#678=CARTESIAN_POINT('Origin',(-5.48202352006534,-1.,3.06161699786838E-17));
#679=CARTESIAN_POINT('',(-5.48202352006534,-3.06161699786838E-17,0.25));
#680=CARTESIAN_POINT('Origin',(-5.48202352006534,0.,0.));
#681=CARTESIAN_POINT('Origin',(-5.48202352006534,0.,0.));
#682=CARTESIAN_POINT('Origin',(-4.99000000000001,0.,0.));
#683=CARTESIAN_POINT('',(-4.99,-3.06161699786838E-17,0.25));
#684=CARTESIAN_POINT('',(-4.99000000000001,-3.06161699786838E-17,0.25));
#685=CARTESIAN_POINT('Origin',(-4.99,0.,0.));
#686=CARTESIAN_POINT('Origin',(-6.48202352006532,-18.9371801531398,0.));
#687=CARTESIAN_POINT('Origin',(0.00999999999999696,0.,0.));
#688=CARTESIAN_POINT('',(-4.99,-4.89858719658942E-17,0.4));
#689=CARTESIAN_POINT('Origin',(-4.99,0.,0.));
#690=CARTESIAN_POINT('',(0.00999999999999696,-4.89858719658942E-17,0.4));
#691=CARTESIAN_POINT('',(0.00999999999999696,-4.89858719658942E-17,0.4));
#692=CARTESIAN_POINT('Origin',(0.00999999999999696,0.,0.));
#693=CARTESIAN_POINT('Origin',(-4.99,0.,0.));
#694=CARTESIAN_POINT('Origin',(0.00999999999999696,0.,0.));
#695=UNCERTAINTY_MEASURE_WITH_UNIT(LENGTH_MEASURE(0.01),#699,
'DISTANCE_ACCURACY_VALUE',
'Maximum model space distance between geometric entities at asserted c
onnectivities');
#696=UNCERTAINTY_MEASURE_WITH_UNIT(LENGTH_MEASURE(0.01),#699,
'DISTANCE_ACCURACY_VALUE',
'Maximum model space distance between geometric entities at asserted c
onnectivities');
#697=(
GEOMETRIC_REPRESENTATION_CONTEXT(3)
GLOBAL_UNCERTAINTY_ASSIGNED_CONTEXT((#695))
GLOBAL_UNIT_ASSIGNED_CONTEXT((#699,#701,#702))
REPRESENTATION_CONTEXT('','3D')
);
#698=(
GEOMETRIC_REPRESENTATION_CONTEXT(3)
GLOBAL_UNCERTAINTY_ASSIGNED_CONTEXT((#696))
GLOBAL_UNIT_ASSIGNED_CONTEXT((#699,#701,#702))
REPRESENTATION_CONTEXT('','3D')
);
#699=(
LENGTH_UNIT()
NAMED_UNIT(*)
SI_UNIT(.MILLI.,.METRE.)
);
#700=(
LENGTH_UNIT()
NAMED_UNIT(*)
SI_UNIT(.CENTI.,.METRE.)
);
#701=(
NAMED_UNIT(*)
PLANE_ANGLE_UNIT()
SI_UNIT($,.RADIAN.)
);
#702=(
NAMED_UNIT(*)
SI_UNIT($,.STERADIAN.)
SOLID_ANGLE_UNIT()
);
#703=SHAPE_DEFINITION_REPRESENTATION(#704,#705);
#704=PRODUCT_DEFINITION_SHAPE('',$,#707);
#705=SHAPE_REPRESENTATION('',(#393),#697);
#706=PRODUCT_DEFINITION_CONTEXT('part definition',#711,'design');
#707=PRODUCT_DEFINITION('K50 \X2\2013\X0\ 29','K50 \X2\2013\X0\ 29',#708,
#706);
#708=PRODUCT_DEFINITION_FORMATION('',$,#713);
#709=PRODUCT_RELATED_PRODUCT_CATEGORY('K50 \X2\2013\X0\ 29',
'K50 \X2\2013\X0\ 29',(#713));
#710=APPLICATION_PROTOCOL_DEFINITION('international standard',
'automotive_design',2009,#711);
#711=APPLICATION_CONTEXT(
'Core Data for Automotive Mechanical Design Process');
#712=PRODUCT_CONTEXT('part definition',#711,'mechanical');
#713=PRODUCT('K50 \X2\2013\X0\ 29','K50 \X2\2013\X0\ 29',$,(#712));
#714=PRESENTATION_STYLE_ASSIGNMENT((#717));
#715=PRESENTATION_STYLE_ASSIGNMENT((#718));
#716=PRESENTATION_STYLE_ASSIGNMENT((#719));
#717=SURFACE_STYLE_USAGE(.BOTH.,#726);
#718=SURFACE_STYLE_USAGE(.BOTH.,#727);
#719=SURFACE_STYLE_USAGE(.BOTH.,#728);
#720=SURFACE_STYLE_RENDERING_WITH_PROPERTIES($,#738,(#723));
#721=SURFACE_STYLE_RENDERING_WITH_PROPERTIES($,#739,(#724));
#722=SURFACE_STYLE_RENDERING_WITH_PROPERTIES($,#740,(#725));
#723=SURFACE_STYLE_TRANSPARENT(0.);
#724=SURFACE_STYLE_TRANSPARENT(0.);
#725=SURFACE_STYLE_TRANSPARENT(0.);
#726=SURFACE_SIDE_STYLE('',(#729,#720));
#727=SURFACE_SIDE_STYLE('',(#730,#721));
#728=SURFACE_SIDE_STYLE('',(#731,#722));
#729=SURFACE_STYLE_FILL_AREA(#732);
#730=SURFACE_STYLE_FILL_AREA(#733);
#731=SURFACE_STYLE_FILL_AREA(#734);
#732=FILL_AREA_STYLE('',(#735));
#733=FILL_AREA_STYLE('',(#736));
#734=FILL_AREA_STYLE('',(#737));
#735=FILL_AREA_STYLE_COLOUR('',#738);
#736=FILL_AREA_STYLE_COLOUR('',#739);
#737=FILL_AREA_STYLE_COLOUR('',#740);
#738=COLOUR_RGB('',0.749019607843137,0.749019607843137,0.749019607843137);
#739=COLOUR_RGB('',1.,0.996078431372549,0.964705882352941);
#740=COLOUR_RGB('',0.32156862745098,0.411764705882353,0.168627450980392);
ENDSEC;
END-ISO-10303-21;
