ISO-10303-21;
HEADER;
/* Generated by software containing ST-Developer
 * from STEP Tools, Inc. (www.steptools.com) 
 */

FILE_DESCRIPTION(
/* description */ (''),
/* implementation_level */ '2;1');

FILE_NAME(
/* name */ 'KB109B.stp',
/* time_stamp */ '2025-11-30T16:43:43+02:00',
/* author */ ('lizab'),
/* organization */ (''),
/* preprocessor_version */ 'ST-DEVELOPER v20.1',
/* originating_system */ 'Autodesk Inventor 2026',
/* authorisation */ '');

FILE_SCHEMA (('AUTOMOTIVE_DESIGN { 1 0 10303 214 3 1 1 }'));
ENDSEC;

DATA;
#10=MECHANICAL_DESIGN_GEOMETRIC_PRESENTATION_REPRESENTATION('',(#33,#34,
#35,#36,#37),#1911);
#11=SHAPE_REPRESENTATION_RELATIONSHIP('SRR','None',#1918,#12);
#12=ADVANCED_BREP_SHAPE_REPRESENTATION('',(#38,#39,#40,#41,#42),#1910);
#13=CYLINDRICAL_SURFACE('',#1204,0.1);
#14=CYLINDRICAL_SURFACE('',#1210,0.2);
#15=CYLINDRICAL_SURFACE('',#1233,0.2);
#16=CYLINDRICAL_SURFACE('',#1241,0.1);
#17=CYLINDRICAL_SURFACE('',#1264,0.175);
#18=CYLINDRICAL_SURFACE('',#1269,0.9);
#19=CIRCLE('',#1203,0.1);
#20=CIRCLE('',#1205,0.1);
#21=CIRCLE('',#1206,0.1);
#22=CIRCLE('',#1211,0.2);
#23=CIRCLE('',#1212,0.2);
#24=CIRCLE('',#1234,0.2);
#25=CIRCLE('',#1235,0.2);
#26=CIRCLE('',#1238,0.1);
#27=CIRCLE('',#1240,0.1);
#28=CIRCLE('',#1242,0.1);
#29=CIRCLE('',#1265,0.175);
#30=CIRCLE('',#1266,0.175);
#31=CIRCLE('',#1270,0.9);
#32=CIRCLE('',#1271,0.9);
#33=STYLED_ITEM('',(#1927),#38);
#34=STYLED_ITEM('',(#1927),#39);
#35=STYLED_ITEM('',(#1927),#40);
#36=STYLED_ITEM('',(#1927),#41);
#37=STYLED_ITEM('',(#1927),#42);
#38=MANIFOLD_SOLID_BREP('\X2\04220432043504400434043E0435\X0\ \X2\04420435043B043E\X0\1',
#1165);
#39=MANIFOLD_SOLID_BREP('\X2\04220432043504400434043E0435\X0\ \X2\04420435043B043E\X0\4',
#1166);
#40=MANIFOLD_SOLID_BREP('\X2\04220432043504400434043E0435\X0\ \X2\04420435043B043E\X0\4',
#1167);
#41=MANIFOLD_SOLID_BREP('\X2\04220432043504400434043E0435\X0\ \X2\04420435043B043E\X0\6',
#1168);
#42=MANIFOLD_SOLID_BREP('\X2\04220432043504400434043E0435\X0\ \X2\04420435043B043E\X0\7',
#1169);
#43=FACE_OUTER_BOUND('',#111,.T.);
#44=FACE_OUTER_BOUND('',#112,.T.);
#45=FACE_OUTER_BOUND('',#113,.T.);
#46=FACE_OUTER_BOUND('',#114,.T.);
#47=FACE_OUTER_BOUND('',#115,.T.);
#48=FACE_OUTER_BOUND('',#116,.T.);
#49=FACE_OUTER_BOUND('',#117,.T.);
#50=FACE_OUTER_BOUND('',#118,.T.);
#51=FACE_OUTER_BOUND('',#119,.T.);
#52=FACE_OUTER_BOUND('',#120,.T.);
#53=FACE_OUTER_BOUND('',#121,.T.);
#54=FACE_OUTER_BOUND('',#122,.T.);
#55=FACE_OUTER_BOUND('',#123,.T.);
#56=FACE_OUTER_BOUND('',#124,.T.);
#57=FACE_OUTER_BOUND('',#125,.T.);
#58=FACE_OUTER_BOUND('',#126,.T.);
#59=FACE_OUTER_BOUND('',#127,.T.);
#60=FACE_OUTER_BOUND('',#128,.T.);
#61=FACE_OUTER_BOUND('',#129,.T.);
#62=FACE_OUTER_BOUND('',#130,.T.);
#63=FACE_OUTER_BOUND('',#131,.T.);
#64=FACE_OUTER_BOUND('',#132,.T.);
#65=FACE_OUTER_BOUND('',#133,.T.);
#66=FACE_OUTER_BOUND('',#134,.T.);
#67=FACE_OUTER_BOUND('',#135,.T.);
#68=FACE_OUTER_BOUND('',#136,.T.);
#69=FACE_OUTER_BOUND('',#137,.T.);
#70=FACE_OUTER_BOUND('',#138,.T.);
#71=FACE_OUTER_BOUND('',#139,.T.);
#72=FACE_OUTER_BOUND('',#140,.T.);
#73=FACE_OUTER_BOUND('',#141,.T.);
#74=FACE_OUTER_BOUND('',#142,.T.);
#75=FACE_OUTER_BOUND('',#143,.T.);
#76=FACE_OUTER_BOUND('',#144,.T.);
#77=FACE_OUTER_BOUND('',#145,.T.);
#78=FACE_OUTER_BOUND('',#146,.T.);
#79=FACE_OUTER_BOUND('',#147,.T.);
#80=FACE_OUTER_BOUND('',#148,.T.);
#81=FACE_OUTER_BOUND('',#149,.T.);
#82=FACE_OUTER_BOUND('',#150,.T.);
#83=FACE_OUTER_BOUND('',#151,.T.);
#84=FACE_OUTER_BOUND('',#152,.T.);
#85=FACE_OUTER_BOUND('',#153,.T.);
#86=FACE_OUTER_BOUND('',#154,.T.);
#87=FACE_OUTER_BOUND('',#155,.T.);
#88=FACE_OUTER_BOUND('',#156,.T.);
#89=FACE_OUTER_BOUND('',#157,.T.);
#90=FACE_OUTER_BOUND('',#158,.T.);
#91=FACE_OUTER_BOUND('',#159,.T.);
#92=FACE_OUTER_BOUND('',#160,.T.);
#93=FACE_OUTER_BOUND('',#161,.T.);
#94=FACE_OUTER_BOUND('',#162,.T.);
#95=FACE_OUTER_BOUND('',#163,.T.);
#96=FACE_OUTER_BOUND('',#164,.T.);
#97=FACE_OUTER_BOUND('',#165,.T.);
#98=FACE_OUTER_BOUND('',#166,.T.);
#99=FACE_OUTER_BOUND('',#167,.T.);
#100=FACE_OUTER_BOUND('',#168,.T.);
#101=FACE_OUTER_BOUND('',#169,.T.);
#102=FACE_OUTER_BOUND('',#170,.T.);
#103=FACE_OUTER_BOUND('',#171,.T.);
#104=FACE_OUTER_BOUND('',#172,.T.);
#105=FACE_OUTER_BOUND('',#173,.T.);
#106=FACE_OUTER_BOUND('',#174,.T.);
#107=FACE_OUTER_BOUND('',#175,.T.);
#108=FACE_OUTER_BOUND('',#176,.T.);
#109=FACE_OUTER_BOUND('',#177,.T.);
#110=FACE_OUTER_BOUND('',#178,.T.);
#111=EDGE_LOOP('',(#721,#722,#723,#724));
#112=EDGE_LOOP('',(#725,#726,#727,#728));
#113=EDGE_LOOP('',(#729,#730,#731,#732));
#114=EDGE_LOOP('',(#733,#734,#735,#736));
#115=EDGE_LOOP('',(#737,#738,#739,#740));
#116=EDGE_LOOP('',(#741,#742,#743,#744));
#117=EDGE_LOOP('',(#745,#746,#747,#748));
#118=EDGE_LOOP('',(#749,#750,#751,#752));
#119=EDGE_LOOP('',(#753,#754,#755,#756));
#120=EDGE_LOOP('',(#757,#758,#759,#760));
#121=EDGE_LOOP('',(#761,#762));
#122=EDGE_LOOP('',(#763,#764,#765,#766,#767));
#123=EDGE_LOOP('',(#768,#769,#770,#771));
#124=EDGE_LOOP('',(#772,#773,#774,#775));
#125=EDGE_LOOP('',(#776,#777,#778,#779));
#126=EDGE_LOOP('',(#780,#781,#782,#783));
#127=EDGE_LOOP('',(#784,#785,#786,#787,#788,#789,#790));
#128=EDGE_LOOP('',(#791,#792,#793,#794,#795));
#129=EDGE_LOOP('',(#796,#797,#798,#799));
#130=EDGE_LOOP('',(#800,#801,#802,#803));
#131=EDGE_LOOP('',(#804,#805,#806,#807));
#132=EDGE_LOOP('',(#808,#809,#810,#811));
#133=EDGE_LOOP('',(#812,#813,#814,#815,#816,#817));
#134=EDGE_LOOP('',(#818,#819,#820,#821,#822));
#135=EDGE_LOOP('',(#823,#824,#825,#826));
#136=EDGE_LOOP('',(#827,#828,#829,#830,#831));
#137=EDGE_LOOP('',(#832,#833,#834,#835));
#138=EDGE_LOOP('',(#836,#837,#838,#839));
#139=EDGE_LOOP('',(#840,#841,#842,#843,#844,#845,#846,#847,#848));
#140=EDGE_LOOP('',(#849,#850,#851,#852,#853,#854,#855,#856,#857,#858,#859,
#860));
#141=EDGE_LOOP('',(#861,#862,#863,#864));
#142=EDGE_LOOP('',(#865,#866,#867,#868));
#143=EDGE_LOOP('',(#869,#870,#871,#872,#873));
#144=EDGE_LOOP('',(#874,#875,#876,#877,#878,#879,#880,#881));
#145=EDGE_LOOP('',(#882,#883,#884,#885,#886));
#146=EDGE_LOOP('',(#887,#888,#889,#890));
#147=EDGE_LOOP('',(#891,#892,#893,#894));
#148=EDGE_LOOP('',(#895,#896,#897,#898));
#149=EDGE_LOOP('',(#899,#900,#901,#902,#903,#904,#905,#906,#907,#908,#909,
#910));
#150=EDGE_LOOP('',(#911,#912));
#151=EDGE_LOOP('',(#913,#914,#915,#916,#917));
#152=EDGE_LOOP('',(#918,#919,#920,#921));
#153=EDGE_LOOP('',(#922,#923,#924,#925));
#154=EDGE_LOOP('',(#926,#927,#928,#929,#930,#931,#932,#933,#934,#935));
#155=EDGE_LOOP('',(#936,#937,#938,#939,#940,#941,#942,#943));
#156=EDGE_LOOP('',(#944,#945,#946,#947,#948));
#157=EDGE_LOOP('',(#949,#950,#951,#952));
#158=EDGE_LOOP('',(#953,#954,#955,#956));
#159=EDGE_LOOP('',(#957,#958,#959,#960));
#160=EDGE_LOOP('',(#961,#962,#963,#964));
#161=EDGE_LOOP('',(#965,#966,#967,#968,#969,#970));
#162=EDGE_LOOP('',(#971,#972,#973,#974,#975));
#163=EDGE_LOOP('',(#976,#977,#978,#979));
#164=EDGE_LOOP('',(#980,#981,#982,#983,#984));
#165=EDGE_LOOP('',(#985,#986,#987,#988));
#166=EDGE_LOOP('',(#989,#990,#991,#992));
#167=EDGE_LOOP('',(#993,#994,#995,#996));
#168=EDGE_LOOP('',(#997,#998,#999,#1000));
#169=EDGE_LOOP('',(#1001,#1002,#1003,#1004,#1005));
#170=EDGE_LOOP('',(#1006,#1007,#1008,#1009,#1010,#1011,#1012,#1013));
#171=EDGE_LOOP('',(#1014,#1015,#1016,#1017,#1018));
#172=EDGE_LOOP('',(#1019,#1020,#1021,#1022));
#173=EDGE_LOOP('',(#1023,#1024,#1025,#1026));
#174=EDGE_LOOP('',(#1027));
#175=EDGE_LOOP('',(#1028));
#176=EDGE_LOOP('',(#1029,#1030,#1031,#1032));
#177=EDGE_LOOP('',(#1033));
#178=EDGE_LOOP('',(#1034));
#179=LINE('',#1587,#322);
#180=LINE('',#1589,#323);
#181=LINE('',#1591,#324);
#182=LINE('',#1592,#325);
#183=LINE('',#1595,#326);
#184=LINE('',#1597,#327);
#185=LINE('',#1598,#328);
#186=LINE('',#1602,#329);
#187=LINE('',#1603,#330);
#188=LINE('',#1604,#331);
#189=LINE('',#1607,#332);
#190=LINE('',#1609,#333);
#191=LINE('',#1610,#334);
#192=LINE('',#1613,#335);
#193=LINE('',#1615,#336);
#194=LINE('',#1616,#337);
#195=LINE('',#1618,#338);
#196=LINE('',#1619,#339);
#197=LINE('',#1621,#340);
#198=LINE('',#1623,#341);
#199=LINE('',#1630,#342);
#200=LINE('',#1635,#343);
#201=LINE('',#1638,#344);
#202=LINE('',#1641,#345);
#203=LINE('',#1643,#346);
#204=LINE('',#1644,#347);
#205=LINE('',#1648,#348);
#206=LINE('',#1650,#349);
#207=LINE('',#1652,#350);
#208=LINE('',#1653,#351);
#209=LINE('',#1655,#352);
#210=LINE('',#1656,#353);
#211=LINE('',#1662,#354);
#212=LINE('',#1665,#355);
#213=LINE('',#1666,#356);
#214=LINE('',#1670,#357);
#215=LINE('',#1672,#358);
#216=LINE('',#1674,#359);
#217=LINE('',#1676,#360);
#218=LINE('',#1677,#361);
#219=LINE('',#1681,#362);
#220=LINE('',#1683,#363);
#221=LINE('',#1685,#364);
#222=LINE('',#1686,#365);
#223=LINE('',#1689,#366);
#224=LINE('',#1691,#367);
#225=LINE('',#1692,#368);
#226=LINE('',#1694,#369);
#227=LINE('',#1696,#370);
#228=LINE('',#1697,#371);
#229=LINE('',#1699,#372);
#230=LINE('',#1702,#373);
#231=LINE('',#1704,#374);
#232=LINE('',#1706,#375);
#233=LINE('',#1708,#376);
#234=LINE('',#1709,#377);
#235=LINE('',#1713,#378);
#236=LINE('',#1714,#379);
#237=LINE('',#1716,#380);
#238=LINE('',#1717,#381);
#239=LINE('',#1720,#382);
#240=LINE('',#1722,#383);
#241=LINE('',#1723,#384);
#242=LINE('',#1725,#385);
#243=LINE('',#1726,#386);
#244=LINE('',#1729,#387);
#245=LINE('',#1731,#388);
#246=LINE('',#1732,#389);
#247=LINE('',#1734,#390);
#248=LINE('',#1737,#391);
#249=LINE('',#1739,#392);
#250=LINE('',#1740,#393);
#251=LINE('',#1743,#394);
#252=LINE('',#1745,#395);
#253=LINE('',#1746,#396);
#254=LINE('',#1749,#397);
#255=LINE('',#1750,#398);
#256=LINE('',#1753,#399);
#257=LINE('',#1754,#400);
#258=LINE('',#1756,#401);
#259=LINE('',#1763,#402);
#260=LINE('',#1766,#403);
#261=LINE('',#1769,#404);
#262=LINE('',#1771,#405);
#263=LINE('',#1772,#406);
#264=LINE('',#1775,#407);
#265=LINE('',#1777,#408);
#266=LINE('',#1779,#409);
#267=LINE('',#1781,#410);
#268=LINE('',#1783,#411);
#269=LINE('',#1785,#412);
#270=LINE('',#1787,#413);
#271=LINE('',#1791,#414);
#272=LINE('',#1792,#415);
#273=LINE('',#1796,#416);
#274=LINE('',#1799,#417);
#275=LINE('',#1802,#418);
#276=LINE('',#1805,#419);
#277=LINE('',#1806,#420);
#278=LINE('',#1808,#421);
#279=LINE('',#1811,#422);
#280=LINE('',#1813,#423);
#281=LINE('',#1814,#424);
#282=LINE('',#1816,#425);
#283=LINE('',#1818,#426);
#284=LINE('',#1820,#427);
#285=LINE('',#1821,#428);
#286=LINE('',#1824,#429);
#287=LINE('',#1825,#430);
#288=LINE('',#1828,#431);
#289=LINE('',#1830,#432);
#290=LINE('',#1832,#433);
#291=LINE('',#1833,#434);
#292=LINE('',#1836,#435);
#293=LINE('',#1838,#436);
#294=LINE('',#1839,#437);
#295=LINE('',#1841,#438);
#296=LINE('',#1843,#439);
#297=LINE('',#1847,#440);
#298=LINE('',#1849,#441);
#299=LINE('',#1850,#442);
#300=LINE('',#1851,#443);
#301=LINE('',#1855,#444);
#302=LINE('',#1856,#445);
#303=LINE('',#1857,#446);
#304=LINE('',#1860,#447);
#305=LINE('',#1862,#448);
#306=LINE('',#1863,#449);
#307=LINE('',#1865,#450);
#308=LINE('',#1866,#451);
#309=LINE('',#1871,#452);
#310=LINE('',#1873,#453);
#311=LINE('',#1874,#454);
#312=LINE('',#1877,#455);
#313=LINE('',#1879,#456);
#314=LINE('',#1880,#457);
#315=LINE('',#1883,#458);
#316=LINE('',#1884,#459);
#317=LINE('',#1887,#460);
#318=LINE('',#1888,#461);
#319=LINE('',#1890,#462);
#320=LINE('',#1896,#463);
#321=LINE('',#1904,#464);
#322=VECTOR('',#1278,10.);
#323=VECTOR('',#1279,10.);
#324=VECTOR('',#1280,10.);
#325=VECTOR('',#1281,10.);
#326=VECTOR('',#1284,10.);
#327=VECTOR('',#1285,10.);
#328=VECTOR('',#1286,10.);
#329=VECTOR('',#1289,10.);
#330=VECTOR('',#1290,10.);
#331=VECTOR('',#1291,10.);
#332=VECTOR('',#1294,10.);
#333=VECTOR('',#1295,10.);
#334=VECTOR('',#1296,10.);
#335=VECTOR('',#1299,10.);
#336=VECTOR('',#1300,10.);
#337=VECTOR('',#1301,10.);
#338=VECTOR('',#1304,10.);
#339=VECTOR('',#1305,10.);
#340=VECTOR('',#1308,10.);
#341=VECTOR('',#1311,10.);
#342=VECTOR('',#1320,10.);
#343=VECTOR('',#1325,10.);
#344=VECTOR('',#1328,10.);
#345=VECTOR('',#1331,10.);
#346=VECTOR('',#1332,10.);
#347=VECTOR('',#1333,10.);
#348=VECTOR('',#1336,10.);
#349=VECTOR('',#1337,10.);
#350=VECTOR('',#1338,10.);
#351=VECTOR('',#1339,10.);
#352=VECTOR('',#1342,10.);
#353=VECTOR('',#1343,10.);
#354=VECTOR('',#1350,10.);
#355=VECTOR('',#1353,10.);
#356=VECTOR('',#1354,10.);
#357=VECTOR('',#1357,10.);
#358=VECTOR('',#1358,10.);
#359=VECTOR('',#1359,10.);
#360=VECTOR('',#1360,10.);
#361=VECTOR('',#1361,10.);
#362=VECTOR('',#1364,10.);
#363=VECTOR('',#1365,10.);
#364=VECTOR('',#1366,10.);
#365=VECTOR('',#1367,10.);
#366=VECTOR('',#1370,10.);
#367=VECTOR('',#1371,10.);
#368=VECTOR('',#1372,10.);
#369=VECTOR('',#1375,10.);
#370=VECTOR('',#1376,10.);
#371=VECTOR('',#1377,10.);
#372=VECTOR('',#1380,10.);
#373=VECTOR('',#1383,10.);
#374=VECTOR('',#1384,10.);
#375=VECTOR('',#1385,10.);
#376=VECTOR('',#1386,10.);
#377=VECTOR('',#1387,10.);
#378=VECTOR('',#1390,10.);
#379=VECTOR('',#1391,10.);
#380=VECTOR('',#1392,10.);
#381=VECTOR('',#1393,10.);
#382=VECTOR('',#1396,10.);
#383=VECTOR('',#1397,10.);
#384=VECTOR('',#1398,10.);
#385=VECTOR('',#1401,10.);
#386=VECTOR('',#1402,10.);
#387=VECTOR('',#1407,10.);
#388=VECTOR('',#1410,10.);
#389=VECTOR('',#1411,10.);
#390=VECTOR('',#1414,10.);
#391=VECTOR('',#1417,10.);
#392=VECTOR('',#1418,10.);
#393=VECTOR('',#1419,10.);
#394=VECTOR('',#1422,10.);
#395=VECTOR('',#1423,10.);
#396=VECTOR('',#1424,10.);
#397=VECTOR('',#1427,10.);
#398=VECTOR('',#1428,10.);
#399=VECTOR('',#1431,10.);
#400=VECTOR('',#1432,10.);
#401=VECTOR('',#1435,10.);
#402=VECTOR('',#1442,10.);
#403=VECTOR('',#1445,10.);
#404=VECTOR('',#1448,10.);
#405=VECTOR('',#1449,10.);
#406=VECTOR('',#1450,10.);
#407=VECTOR('',#1453,10.);
#408=VECTOR('',#1454,10.);
#409=VECTOR('',#1455,10.);
#410=VECTOR('',#1456,10.);
#411=VECTOR('',#1457,10.);
#412=VECTOR('',#1458,10.);
#413=VECTOR('',#1459,10.);
#414=VECTOR('',#1462,10.);
#415=VECTOR('',#1463,10.);
#416=VECTOR('',#1468,10.);
#417=VECTOR('',#1471,10.);
#418=VECTOR('',#1474,10.);
#419=VECTOR('',#1477,10.);
#420=VECTOR('',#1478,10.);
#421=VECTOR('',#1481,10.);
#422=VECTOR('',#1484,10.);
#423=VECTOR('',#1485,10.);
#424=VECTOR('',#1486,10.);
#425=VECTOR('',#1487,10.);
#426=VECTOR('',#1488,10.);
#427=VECTOR('',#1489,10.);
#428=VECTOR('',#1490,10.);
#429=VECTOR('',#1493,10.);
#430=VECTOR('',#1494,10.);
#431=VECTOR('',#1497,10.);
#432=VECTOR('',#1498,10.);
#433=VECTOR('',#1499,10.);
#434=VECTOR('',#1500,10.);
#435=VECTOR('',#1503,10.);
#436=VECTOR('',#1504,10.);
#437=VECTOR('',#1505,10.);
#438=VECTOR('',#1508,10.);
#439=VECTOR('',#1511,10.);
#440=VECTOR('',#1516,10.);
#441=VECTOR('',#1517,10.);
#442=VECTOR('',#1518,10.);
#443=VECTOR('',#1519,10.);
#444=VECTOR('',#1522,10.);
#445=VECTOR('',#1523,10.);
#446=VECTOR('',#1524,10.);
#447=VECTOR('',#1527,10.);
#448=VECTOR('',#1528,10.);
#449=VECTOR('',#1529,10.);
#450=VECTOR('',#1532,10.);
#451=VECTOR('',#1533,10.);
#452=VECTOR('',#1540,10.);
#453=VECTOR('',#1541,10.);
#454=VECTOR('',#1542,10.);
#455=VECTOR('',#1545,10.);
#456=VECTOR('',#1546,10.);
#457=VECTOR('',#1547,10.);
#458=VECTOR('',#1550,10.);
#459=VECTOR('',#1551,10.);
#460=VECTOR('',#1554,10.);
#461=VECTOR('',#1555,10.);
#462=VECTOR('',#1558,10.);
#463=VECTOR('',#1565,0.175);
#464=VECTOR('',#1576,0.9);
#465=VERTEX_POINT('',#1585);
#466=VERTEX_POINT('',#1586);
#467=VERTEX_POINT('',#1588);
#468=VERTEX_POINT('',#1590);
#469=VERTEX_POINT('',#1594);
#470=VERTEX_POINT('',#1596);
#471=VERTEX_POINT('',#1600);
#472=VERTEX_POINT('',#1601);
#473=VERTEX_POINT('',#1606);
#474=VERTEX_POINT('',#1608);
#475=VERTEX_POINT('',#1612);
#476=VERTEX_POINT('',#1614);
#477=VERTEX_POINT('',#1627);
#478=VERTEX_POINT('',#1628);
#479=VERTEX_POINT('',#1632);
#480=VERTEX_POINT('',#1634);
#481=VERTEX_POINT('',#1636);
#482=VERTEX_POINT('',#1640);
#483=VERTEX_POINT('',#1642);
#484=VERTEX_POINT('',#1646);
#485=VERTEX_POINT('',#1647);
#486=VERTEX_POINT('',#1649);
#487=VERTEX_POINT('',#1651);
#488=VERTEX_POINT('',#1658);
#489=VERTEX_POINT('',#1660);
#490=VERTEX_POINT('',#1664);
#491=VERTEX_POINT('',#1668);
#492=VERTEX_POINT('',#1669);
#493=VERTEX_POINT('',#1671);
#494=VERTEX_POINT('',#1673);
#495=VERTEX_POINT('',#1675);
#496=VERTEX_POINT('',#1679);
#497=VERTEX_POINT('',#1680);
#498=VERTEX_POINT('',#1682);
#499=VERTEX_POINT('',#1684);
#500=VERTEX_POINT('',#1688);
#501=VERTEX_POINT('',#1690);
#502=VERTEX_POINT('',#1695);
#503=VERTEX_POINT('',#1701);
#504=VERTEX_POINT('',#1703);
#505=VERTEX_POINT('',#1705);
#506=VERTEX_POINT('',#1707);
#507=VERTEX_POINT('',#1711);
#508=VERTEX_POINT('',#1712);
#509=VERTEX_POINT('',#1715);
#510=VERTEX_POINT('',#1719);
#511=VERTEX_POINT('',#1721);
#512=VERTEX_POINT('',#1736);
#513=VERTEX_POINT('',#1738);
#514=VERTEX_POINT('',#1742);
#515=VERTEX_POINT('',#1744);
#516=VERTEX_POINT('',#1748);
#517=VERTEX_POINT('',#1752);
#518=VERTEX_POINT('',#1759);
#519=VERTEX_POINT('',#1760);
#520=VERTEX_POINT('',#1762);
#521=VERTEX_POINT('',#1764);
#522=VERTEX_POINT('',#1768);
#523=VERTEX_POINT('',#1770);
#524=VERTEX_POINT('',#1774);
#525=VERTEX_POINT('',#1776);
#526=VERTEX_POINT('',#1778);
#527=VERTEX_POINT('',#1780);
#528=VERTEX_POINT('',#1782);
#529=VERTEX_POINT('',#1784);
#530=VERTEX_POINT('',#1786);
#531=VERTEX_POINT('',#1788);
#532=VERTEX_POINT('',#1790);
#533=VERTEX_POINT('',#1794);
#534=VERTEX_POINT('',#1798);
#535=VERTEX_POINT('',#1800);
#536=VERTEX_POINT('',#1804);
#537=VERTEX_POINT('',#1810);
#538=VERTEX_POINT('',#1812);
#539=VERTEX_POINT('',#1815);
#540=VERTEX_POINT('',#1817);
#541=VERTEX_POINT('',#1819);
#542=VERTEX_POINT('',#1823);
#543=VERTEX_POINT('',#1827);
#544=VERTEX_POINT('',#1829);
#545=VERTEX_POINT('',#1831);
#546=VERTEX_POINT('',#1835);
#547=VERTEX_POINT('',#1837);
#548=VERTEX_POINT('',#1846);
#549=VERTEX_POINT('',#1848);
#550=VERTEX_POINT('',#1853);
#551=VERTEX_POINT('',#1854);
#552=VERTEX_POINT('',#1859);
#553=VERTEX_POINT('',#1861);
#554=VERTEX_POINT('',#1870);
#555=VERTEX_POINT('',#1872);
#556=VERTEX_POINT('',#1876);
#557=VERTEX_POINT('',#1878);
#558=VERTEX_POINT('',#1882);
#559=VERTEX_POINT('',#1886);
#560=VERTEX_POINT('',#1893);
#561=VERTEX_POINT('',#1895);
#562=VERTEX_POINT('',#1901);
#563=VERTEX_POINT('',#1903);
#564=EDGE_CURVE('',#465,#466,#179,.T.);
#565=EDGE_CURVE('',#467,#466,#180,.T.);
#566=EDGE_CURVE('',#467,#468,#181,.T.);
#567=EDGE_CURVE('',#468,#465,#182,.T.);
#568=EDGE_CURVE('',#465,#469,#183,.T.);
#569=EDGE_CURVE('',#470,#469,#184,.T.);
#570=EDGE_CURVE('',#466,#470,#185,.T.);
#571=EDGE_CURVE('',#471,#472,#186,.T.);
#572=EDGE_CURVE('',#470,#472,#187,.T.);
#573=EDGE_CURVE('',#469,#471,#188,.T.);
#574=EDGE_CURVE('',#472,#473,#189,.T.);
#575=EDGE_CURVE('',#473,#474,#190,.T.);
#576=EDGE_CURVE('',#474,#470,#191,.T.);
#577=EDGE_CURVE('',#475,#473,#192,.T.);
#578=EDGE_CURVE('',#476,#475,#193,.T.);
#579=EDGE_CURVE('',#474,#476,#194,.T.);
#580=EDGE_CURVE('',#467,#472,#195,.T.);
#581=EDGE_CURVE('',#475,#467,#196,.T.);
#582=EDGE_CURVE('',#466,#476,#197,.T.);
#583=EDGE_CURVE('',#471,#468,#198,.T.);
#584=EDGE_CURVE('',#477,#478,#19,.F.);
#585=EDGE_CURVE('',#477,#478,#199,.T.);
#586=EDGE_CURVE('',#479,#477,#20,.F.);
#587=EDGE_CURVE('',#479,#480,#200,.T.);
#588=EDGE_CURVE('',#480,#481,#21,.T.);
#589=EDGE_CURVE('',#481,#478,#201,.T.);
#590=EDGE_CURVE('',#479,#482,#202,.T.);
#591=EDGE_CURVE('',#483,#482,#203,.T.);
#592=EDGE_CURVE('',#480,#483,#204,.T.);
#593=EDGE_CURVE('',#484,#485,#205,.T.);
#594=EDGE_CURVE('',#484,#486,#206,.T.);
#595=EDGE_CURVE('',#487,#486,#207,.T.);
#596=EDGE_CURVE('',#485,#487,#208,.T.);
#597=EDGE_CURVE('',#486,#483,#209,.T.);
#598=EDGE_CURVE('',#482,#487,#210,.T.);
#599=EDGE_CURVE('',#488,#484,#22,.T.);
#600=EDGE_CURVE('',#485,#489,#23,.T.);
#601=EDGE_CURVE('',#489,#488,#211,.T.);
#602=EDGE_CURVE('',#490,#488,#212,.T.);
#603=EDGE_CURVE('',#481,#490,#213,.T.);
#604=EDGE_CURVE('',#491,#492,#214,.T.);
#605=EDGE_CURVE('',#493,#491,#215,.T.);
#606=EDGE_CURVE('',#493,#494,#216,.T.);
#607=EDGE_CURVE('',#494,#495,#217,.T.);
#608=EDGE_CURVE('',#495,#492,#218,.T.);
#609=EDGE_CURVE('',#496,#497,#219,.T.);
#610=EDGE_CURVE('',#496,#498,#220,.T.);
#611=EDGE_CURVE('',#499,#498,#221,.T.);
#612=EDGE_CURVE('',#497,#499,#222,.T.);
#613=EDGE_CURVE('',#497,#500,#223,.T.);
#614=EDGE_CURVE('',#501,#499,#224,.T.);
#615=EDGE_CURVE('',#500,#501,#225,.T.);
#616=EDGE_CURVE('',#477,#496,#226,.T.);
#617=EDGE_CURVE('',#477,#502,#227,.T.);
#618=EDGE_CURVE('',#498,#502,#228,.T.);
#619=EDGE_CURVE('',#502,#501,#229,.T.);
#620=EDGE_CURVE('',#503,#493,#230,.T.);
#621=EDGE_CURVE('',#504,#503,#231,.T.);
#622=EDGE_CURVE('',#505,#504,#232,.T.);
#623=EDGE_CURVE('',#505,#506,#233,.T.);
#624=EDGE_CURVE('',#494,#506,#234,.T.);
#625=EDGE_CURVE('',#507,#508,#235,.T.);
#626=EDGE_CURVE('',#505,#508,#236,.T.);
#627=EDGE_CURVE('',#509,#504,#237,.T.);
#628=EDGE_CURVE('',#509,#507,#238,.T.);
#629=EDGE_CURVE('',#507,#510,#239,.T.);
#630=EDGE_CURVE('',#511,#510,#240,.T.);
#631=EDGE_CURVE('',#511,#508,#241,.T.);
#632=EDGE_CURVE('',#511,#506,#242,.T.);
#633=EDGE_CURVE('',#510,#495,#243,.T.);
#634=EDGE_CURVE('',#495,#509,#244,.T.);
#635=EDGE_CURVE('',#492,#481,#245,.T.);
#636=EDGE_CURVE('',#509,#500,#246,.T.);
#637=EDGE_CURVE('',#503,#489,#247,.T.);
#638=EDGE_CURVE('',#512,#481,#248,.T.);
#639=EDGE_CURVE('',#513,#512,#249,.T.);
#640=EDGE_CURVE('',#492,#513,#250,.T.);
#641=EDGE_CURVE('',#512,#514,#251,.T.);
#642=EDGE_CURVE('',#515,#514,#252,.T.);
#643=EDGE_CURVE('',#513,#515,#253,.T.);
#644=EDGE_CURVE('',#516,#515,#254,.T.);
#645=EDGE_CURVE('',#491,#516,#255,.T.);
#646=EDGE_CURVE('',#517,#516,#256,.T.);
#647=EDGE_CURVE('',#490,#517,#257,.T.);
#648=EDGE_CURVE('',#514,#517,#258,.T.);
#649=EDGE_CURVE('',#518,#519,#24,.T.);
#650=EDGE_CURVE('',#519,#520,#259,.T.);
#651=EDGE_CURVE('',#520,#521,#25,.T.);
#652=EDGE_CURVE('',#521,#518,#260,.T.);
#653=EDGE_CURVE('',#522,#521,#261,.T.);
#654=EDGE_CURVE('',#523,#522,#262,.T.);
#655=EDGE_CURVE('',#518,#523,#263,.T.);
#656=EDGE_CURVE('',#524,#520,#264,.T.);
#657=EDGE_CURVE('',#525,#524,#265,.T.);
#658=EDGE_CURVE('',#526,#525,#266,.T.);
#659=EDGE_CURVE('',#526,#527,#267,.T.);
#660=EDGE_CURVE('',#528,#527,#268,.T.);
#661=EDGE_CURVE('',#529,#528,#269,.T.);
#662=EDGE_CURVE('',#530,#529,#270,.T.);
#663=EDGE_CURVE('',#531,#530,#26,.T.);
#664=EDGE_CURVE('',#531,#532,#271,.T.);
#665=EDGE_CURVE('',#522,#532,#272,.T.);
#666=EDGE_CURVE('',#530,#533,#27,.T.);
#667=EDGE_CURVE('',#533,#530,#273,.T.);
#668=EDGE_CURVE('',#533,#534,#274,.T.);
#669=EDGE_CURVE('',#534,#535,#28,.T.);
#670=EDGE_CURVE('',#535,#531,#275,.T.);
#671=EDGE_CURVE('',#535,#536,#276,.T.);
#672=EDGE_CURVE('',#532,#536,#277,.T.);
#673=EDGE_CURVE('',#536,#523,#278,.T.);
#674=EDGE_CURVE('',#530,#537,#279,.T.);
#675=EDGE_CURVE('',#537,#538,#280,.T.);
#676=EDGE_CURVE('',#527,#538,#281,.T.);
#677=EDGE_CURVE('',#539,#526,#282,.T.);
#678=EDGE_CURVE('',#539,#540,#283,.T.);
#679=EDGE_CURVE('',#540,#541,#284,.T.);
#680=EDGE_CURVE('',#541,#534,#285,.T.);
#681=EDGE_CURVE('',#541,#542,#286,.T.);
#682=EDGE_CURVE('',#542,#519,#287,.T.);
#683=EDGE_CURVE('',#543,#540,#288,.T.);
#684=EDGE_CURVE('',#544,#539,#289,.T.);
#685=EDGE_CURVE('',#545,#544,#290,.T.);
#686=EDGE_CURVE('',#545,#543,#291,.T.);
#687=EDGE_CURVE('',#528,#546,#292,.T.);
#688=EDGE_CURVE('',#546,#547,#293,.T.);
#689=EDGE_CURVE('',#529,#547,#294,.T.);
#690=EDGE_CURVE('',#538,#546,#295,.T.);
#691=EDGE_CURVE('',#547,#537,#296,.T.);
#692=EDGE_CURVE('',#544,#548,#297,.T.);
#693=EDGE_CURVE('',#549,#548,#298,.T.);
#694=EDGE_CURVE('',#549,#525,#299,.T.);
#695=EDGE_CURVE('',#524,#545,#300,.T.);
#696=EDGE_CURVE('',#550,#551,#301,.T.);
#697=EDGE_CURVE('',#526,#550,#302,.T.);
#698=EDGE_CURVE('',#549,#551,#303,.T.);
#699=EDGE_CURVE('',#552,#551,#304,.T.);
#700=EDGE_CURVE('',#552,#553,#305,.T.);
#701=EDGE_CURVE('',#550,#553,#306,.T.);
#702=EDGE_CURVE('',#553,#539,#307,.T.);
#703=EDGE_CURVE('',#552,#548,#308,.T.);
#704=EDGE_CURVE('',#540,#554,#309,.T.);
#705=EDGE_CURVE('',#554,#555,#310,.T.);
#706=EDGE_CURVE('',#555,#541,#311,.T.);
#707=EDGE_CURVE('',#554,#556,#312,.T.);
#708=EDGE_CURVE('',#556,#557,#313,.T.);
#709=EDGE_CURVE('',#555,#557,#314,.T.);
#710=EDGE_CURVE('',#543,#558,#315,.T.);
#711=EDGE_CURVE('',#558,#556,#316,.T.);
#712=EDGE_CURVE('',#542,#559,#317,.T.);
#713=EDGE_CURVE('',#559,#558,#318,.T.);
#714=EDGE_CURVE('',#557,#559,#319,.T.);
#715=EDGE_CURVE('',#560,#560,#29,.T.);
#716=EDGE_CURVE('',#560,#561,#320,.T.);
#717=EDGE_CURVE('',#561,#561,#30,.T.);
#718=EDGE_CURVE('',#562,#562,#31,.T.);
#719=EDGE_CURVE('',#562,#563,#321,.T.);
#720=EDGE_CURVE('',#563,#563,#32,.T.);
#721=ORIENTED_EDGE('',*,*,#564,.T.);
#722=ORIENTED_EDGE('',*,*,#565,.F.);
#723=ORIENTED_EDGE('',*,*,#566,.T.);
#724=ORIENTED_EDGE('',*,*,#567,.T.);
#725=ORIENTED_EDGE('',*,*,#564,.F.);
#726=ORIENTED_EDGE('',*,*,#568,.T.);
#727=ORIENTED_EDGE('',*,*,#569,.F.);
#728=ORIENTED_EDGE('',*,*,#570,.F.);
#729=ORIENTED_EDGE('',*,*,#571,.T.);
#730=ORIENTED_EDGE('',*,*,#572,.F.);
#731=ORIENTED_EDGE('',*,*,#569,.T.);
#732=ORIENTED_EDGE('',*,*,#573,.T.);
#733=ORIENTED_EDGE('',*,*,#574,.T.);
#734=ORIENTED_EDGE('',*,*,#575,.T.);
#735=ORIENTED_EDGE('',*,*,#576,.T.);
#736=ORIENTED_EDGE('',*,*,#572,.T.);
#737=ORIENTED_EDGE('',*,*,#575,.F.);
#738=ORIENTED_EDGE('',*,*,#577,.F.);
#739=ORIENTED_EDGE('',*,*,#578,.F.);
#740=ORIENTED_EDGE('',*,*,#579,.F.);
#741=ORIENTED_EDGE('',*,*,#574,.F.);
#742=ORIENTED_EDGE('',*,*,#580,.F.);
#743=ORIENTED_EDGE('',*,*,#581,.F.);
#744=ORIENTED_EDGE('',*,*,#577,.T.);
#745=ORIENTED_EDGE('',*,*,#582,.T.);
#746=ORIENTED_EDGE('',*,*,#578,.T.);
#747=ORIENTED_EDGE('',*,*,#581,.T.);
#748=ORIENTED_EDGE('',*,*,#565,.T.);
#749=ORIENTED_EDGE('',*,*,#566,.F.);
#750=ORIENTED_EDGE('',*,*,#580,.T.);
#751=ORIENTED_EDGE('',*,*,#571,.F.);
#752=ORIENTED_EDGE('',*,*,#583,.T.);
#753=ORIENTED_EDGE('',*,*,#567,.F.);
#754=ORIENTED_EDGE('',*,*,#583,.F.);
#755=ORIENTED_EDGE('',*,*,#573,.F.);
#756=ORIENTED_EDGE('',*,*,#568,.F.);
#757=ORIENTED_EDGE('',*,*,#576,.F.);
#758=ORIENTED_EDGE('',*,*,#579,.T.);
#759=ORIENTED_EDGE('',*,*,#582,.F.);
#760=ORIENTED_EDGE('',*,*,#570,.T.);
#761=ORIENTED_EDGE('',*,*,#584,.T.);
#762=ORIENTED_EDGE('',*,*,#585,.F.);
#763=ORIENTED_EDGE('',*,*,#586,.F.);
#764=ORIENTED_EDGE('',*,*,#587,.T.);
#765=ORIENTED_EDGE('',*,*,#588,.T.);
#766=ORIENTED_EDGE('',*,*,#589,.T.);
#767=ORIENTED_EDGE('',*,*,#584,.F.);
#768=ORIENTED_EDGE('',*,*,#587,.F.);
#769=ORIENTED_EDGE('',*,*,#590,.T.);
#770=ORIENTED_EDGE('',*,*,#591,.F.);
#771=ORIENTED_EDGE('',*,*,#592,.F.);
#772=ORIENTED_EDGE('',*,*,#593,.F.);
#773=ORIENTED_EDGE('',*,*,#594,.T.);
#774=ORIENTED_EDGE('',*,*,#595,.F.);
#775=ORIENTED_EDGE('',*,*,#596,.F.);
#776=ORIENTED_EDGE('',*,*,#597,.T.);
#777=ORIENTED_EDGE('',*,*,#591,.T.);
#778=ORIENTED_EDGE('',*,*,#598,.T.);
#779=ORIENTED_EDGE('',*,*,#595,.T.);
#780=ORIENTED_EDGE('',*,*,#599,.T.);
#781=ORIENTED_EDGE('',*,*,#593,.T.);
#782=ORIENTED_EDGE('',*,*,#600,.T.);
#783=ORIENTED_EDGE('',*,*,#601,.T.);
#784=ORIENTED_EDGE('',*,*,#599,.F.);
#785=ORIENTED_EDGE('',*,*,#602,.F.);
#786=ORIENTED_EDGE('',*,*,#603,.F.);
#787=ORIENTED_EDGE('',*,*,#588,.F.);
#788=ORIENTED_EDGE('',*,*,#592,.T.);
#789=ORIENTED_EDGE('',*,*,#597,.F.);
#790=ORIENTED_EDGE('',*,*,#594,.F.);
#791=ORIENTED_EDGE('',*,*,#604,.F.);
#792=ORIENTED_EDGE('',*,*,#605,.F.);
#793=ORIENTED_EDGE('',*,*,#606,.T.);
#794=ORIENTED_EDGE('',*,*,#607,.T.);
#795=ORIENTED_EDGE('',*,*,#608,.T.);
#796=ORIENTED_EDGE('',*,*,#609,.F.);
#797=ORIENTED_EDGE('',*,*,#610,.T.);
#798=ORIENTED_EDGE('',*,*,#611,.F.);
#799=ORIENTED_EDGE('',*,*,#612,.F.);
#800=ORIENTED_EDGE('',*,*,#613,.F.);
#801=ORIENTED_EDGE('',*,*,#612,.T.);
#802=ORIENTED_EDGE('',*,*,#614,.F.);
#803=ORIENTED_EDGE('',*,*,#615,.F.);
#804=ORIENTED_EDGE('',*,*,#616,.F.);
#805=ORIENTED_EDGE('',*,*,#617,.T.);
#806=ORIENTED_EDGE('',*,*,#618,.F.);
#807=ORIENTED_EDGE('',*,*,#610,.F.);
#808=ORIENTED_EDGE('',*,*,#618,.T.);
#809=ORIENTED_EDGE('',*,*,#619,.T.);
#810=ORIENTED_EDGE('',*,*,#614,.T.);
#811=ORIENTED_EDGE('',*,*,#611,.T.);
#812=ORIENTED_EDGE('',*,*,#606,.F.);
#813=ORIENTED_EDGE('',*,*,#620,.F.);
#814=ORIENTED_EDGE('',*,*,#621,.F.);
#815=ORIENTED_EDGE('',*,*,#622,.F.);
#816=ORIENTED_EDGE('',*,*,#623,.T.);
#817=ORIENTED_EDGE('',*,*,#624,.F.);
#818=ORIENTED_EDGE('',*,*,#625,.T.);
#819=ORIENTED_EDGE('',*,*,#626,.F.);
#820=ORIENTED_EDGE('',*,*,#622,.T.);
#821=ORIENTED_EDGE('',*,*,#627,.F.);
#822=ORIENTED_EDGE('',*,*,#628,.T.);
#823=ORIENTED_EDGE('',*,*,#625,.F.);
#824=ORIENTED_EDGE('',*,*,#629,.T.);
#825=ORIENTED_EDGE('',*,*,#630,.F.);
#826=ORIENTED_EDGE('',*,*,#631,.T.);
#827=ORIENTED_EDGE('',*,*,#624,.T.);
#828=ORIENTED_EDGE('',*,*,#632,.F.);
#829=ORIENTED_EDGE('',*,*,#630,.T.);
#830=ORIENTED_EDGE('',*,*,#633,.T.);
#831=ORIENTED_EDGE('',*,*,#607,.F.);
#832=ORIENTED_EDGE('',*,*,#631,.F.);
#833=ORIENTED_EDGE('',*,*,#632,.T.);
#834=ORIENTED_EDGE('',*,*,#623,.F.);
#835=ORIENTED_EDGE('',*,*,#626,.T.);
#836=ORIENTED_EDGE('',*,*,#634,.F.);
#837=ORIENTED_EDGE('',*,*,#633,.F.);
#838=ORIENTED_EDGE('',*,*,#629,.F.);
#839=ORIENTED_EDGE('',*,*,#628,.F.);
#840=ORIENTED_EDGE('',*,*,#589,.F.);
#841=ORIENTED_EDGE('',*,*,#635,.F.);
#842=ORIENTED_EDGE('',*,*,#608,.F.);
#843=ORIENTED_EDGE('',*,*,#634,.T.);
#844=ORIENTED_EDGE('',*,*,#636,.T.);
#845=ORIENTED_EDGE('',*,*,#615,.T.);
#846=ORIENTED_EDGE('',*,*,#619,.F.);
#847=ORIENTED_EDGE('',*,*,#617,.F.);
#848=ORIENTED_EDGE('',*,*,#585,.T.);
#849=ORIENTED_EDGE('',*,*,#600,.F.);
#850=ORIENTED_EDGE('',*,*,#596,.T.);
#851=ORIENTED_EDGE('',*,*,#598,.F.);
#852=ORIENTED_EDGE('',*,*,#590,.F.);
#853=ORIENTED_EDGE('',*,*,#586,.T.);
#854=ORIENTED_EDGE('',*,*,#616,.T.);
#855=ORIENTED_EDGE('',*,*,#609,.T.);
#856=ORIENTED_EDGE('',*,*,#613,.T.);
#857=ORIENTED_EDGE('',*,*,#636,.F.);
#858=ORIENTED_EDGE('',*,*,#627,.T.);
#859=ORIENTED_EDGE('',*,*,#621,.T.);
#860=ORIENTED_EDGE('',*,*,#637,.T.);
#861=ORIENTED_EDGE('',*,*,#635,.T.);
#862=ORIENTED_EDGE('',*,*,#638,.F.);
#863=ORIENTED_EDGE('',*,*,#639,.F.);
#864=ORIENTED_EDGE('',*,*,#640,.F.);
#865=ORIENTED_EDGE('',*,*,#639,.T.);
#866=ORIENTED_EDGE('',*,*,#641,.T.);
#867=ORIENTED_EDGE('',*,*,#642,.F.);
#868=ORIENTED_EDGE('',*,*,#643,.F.);
#869=ORIENTED_EDGE('',*,*,#604,.T.);
#870=ORIENTED_EDGE('',*,*,#640,.T.);
#871=ORIENTED_EDGE('',*,*,#643,.T.);
#872=ORIENTED_EDGE('',*,*,#644,.F.);
#873=ORIENTED_EDGE('',*,*,#645,.F.);
#874=ORIENTED_EDGE('',*,*,#601,.F.);
#875=ORIENTED_EDGE('',*,*,#637,.F.);
#876=ORIENTED_EDGE('',*,*,#620,.T.);
#877=ORIENTED_EDGE('',*,*,#605,.T.);
#878=ORIENTED_EDGE('',*,*,#645,.T.);
#879=ORIENTED_EDGE('',*,*,#646,.F.);
#880=ORIENTED_EDGE('',*,*,#647,.F.);
#881=ORIENTED_EDGE('',*,*,#602,.T.);
#882=ORIENTED_EDGE('',*,*,#638,.T.);
#883=ORIENTED_EDGE('',*,*,#603,.T.);
#884=ORIENTED_EDGE('',*,*,#647,.T.);
#885=ORIENTED_EDGE('',*,*,#648,.F.);
#886=ORIENTED_EDGE('',*,*,#641,.F.);
#887=ORIENTED_EDGE('',*,*,#648,.T.);
#888=ORIENTED_EDGE('',*,*,#646,.T.);
#889=ORIENTED_EDGE('',*,*,#644,.T.);
#890=ORIENTED_EDGE('',*,*,#642,.T.);
#891=ORIENTED_EDGE('',*,*,#649,.T.);
#892=ORIENTED_EDGE('',*,*,#650,.T.);
#893=ORIENTED_EDGE('',*,*,#651,.T.);
#894=ORIENTED_EDGE('',*,*,#652,.T.);
#895=ORIENTED_EDGE('',*,*,#652,.F.);
#896=ORIENTED_EDGE('',*,*,#653,.F.);
#897=ORIENTED_EDGE('',*,*,#654,.F.);
#898=ORIENTED_EDGE('',*,*,#655,.F.);
#899=ORIENTED_EDGE('',*,*,#651,.F.);
#900=ORIENTED_EDGE('',*,*,#656,.F.);
#901=ORIENTED_EDGE('',*,*,#657,.F.);
#902=ORIENTED_EDGE('',*,*,#658,.F.);
#903=ORIENTED_EDGE('',*,*,#659,.T.);
#904=ORIENTED_EDGE('',*,*,#660,.F.);
#905=ORIENTED_EDGE('',*,*,#661,.F.);
#906=ORIENTED_EDGE('',*,*,#662,.F.);
#907=ORIENTED_EDGE('',*,*,#663,.F.);
#908=ORIENTED_EDGE('',*,*,#664,.T.);
#909=ORIENTED_EDGE('',*,*,#665,.F.);
#910=ORIENTED_EDGE('',*,*,#653,.T.);
#911=ORIENTED_EDGE('',*,*,#666,.F.);
#912=ORIENTED_EDGE('',*,*,#667,.F.);
#913=ORIENTED_EDGE('',*,*,#666,.T.);
#914=ORIENTED_EDGE('',*,*,#668,.T.);
#915=ORIENTED_EDGE('',*,*,#669,.T.);
#916=ORIENTED_EDGE('',*,*,#670,.T.);
#917=ORIENTED_EDGE('',*,*,#663,.T.);
#918=ORIENTED_EDGE('',*,*,#670,.F.);
#919=ORIENTED_EDGE('',*,*,#671,.T.);
#920=ORIENTED_EDGE('',*,*,#672,.F.);
#921=ORIENTED_EDGE('',*,*,#664,.F.);
#922=ORIENTED_EDGE('',*,*,#672,.T.);
#923=ORIENTED_EDGE('',*,*,#673,.T.);
#924=ORIENTED_EDGE('',*,*,#654,.T.);
#925=ORIENTED_EDGE('',*,*,#665,.T.);
#926=ORIENTED_EDGE('',*,*,#667,.T.);
#927=ORIENTED_EDGE('',*,*,#674,.T.);
#928=ORIENTED_EDGE('',*,*,#675,.T.);
#929=ORIENTED_EDGE('',*,*,#676,.F.);
#930=ORIENTED_EDGE('',*,*,#659,.F.);
#931=ORIENTED_EDGE('',*,*,#677,.F.);
#932=ORIENTED_EDGE('',*,*,#678,.T.);
#933=ORIENTED_EDGE('',*,*,#679,.T.);
#934=ORIENTED_EDGE('',*,*,#680,.T.);
#935=ORIENTED_EDGE('',*,*,#668,.F.);
#936=ORIENTED_EDGE('',*,*,#649,.F.);
#937=ORIENTED_EDGE('',*,*,#655,.T.);
#938=ORIENTED_EDGE('',*,*,#673,.F.);
#939=ORIENTED_EDGE('',*,*,#671,.F.);
#940=ORIENTED_EDGE('',*,*,#669,.F.);
#941=ORIENTED_EDGE('',*,*,#680,.F.);
#942=ORIENTED_EDGE('',*,*,#681,.T.);
#943=ORIENTED_EDGE('',*,*,#682,.T.);
#944=ORIENTED_EDGE('',*,*,#683,.T.);
#945=ORIENTED_EDGE('',*,*,#678,.F.);
#946=ORIENTED_EDGE('',*,*,#684,.F.);
#947=ORIENTED_EDGE('',*,*,#685,.F.);
#948=ORIENTED_EDGE('',*,*,#686,.T.);
#949=ORIENTED_EDGE('',*,*,#661,.T.);
#950=ORIENTED_EDGE('',*,*,#687,.T.);
#951=ORIENTED_EDGE('',*,*,#688,.T.);
#952=ORIENTED_EDGE('',*,*,#689,.F.);
#953=ORIENTED_EDGE('',*,*,#660,.T.);
#954=ORIENTED_EDGE('',*,*,#676,.T.);
#955=ORIENTED_EDGE('',*,*,#690,.T.);
#956=ORIENTED_EDGE('',*,*,#687,.F.);
#957=ORIENTED_EDGE('',*,*,#662,.T.);
#958=ORIENTED_EDGE('',*,*,#689,.T.);
#959=ORIENTED_EDGE('',*,*,#691,.T.);
#960=ORIENTED_EDGE('',*,*,#674,.F.);
#961=ORIENTED_EDGE('',*,*,#691,.F.);
#962=ORIENTED_EDGE('',*,*,#688,.F.);
#963=ORIENTED_EDGE('',*,*,#690,.F.);
#964=ORIENTED_EDGE('',*,*,#675,.F.);
#965=ORIENTED_EDGE('',*,*,#685,.T.);
#966=ORIENTED_EDGE('',*,*,#692,.T.);
#967=ORIENTED_EDGE('',*,*,#693,.F.);
#968=ORIENTED_EDGE('',*,*,#694,.T.);
#969=ORIENTED_EDGE('',*,*,#657,.T.);
#970=ORIENTED_EDGE('',*,*,#695,.T.);
#971=ORIENTED_EDGE('',*,*,#696,.F.);
#972=ORIENTED_EDGE('',*,*,#697,.F.);
#973=ORIENTED_EDGE('',*,*,#658,.T.);
#974=ORIENTED_EDGE('',*,*,#694,.F.);
#975=ORIENTED_EDGE('',*,*,#698,.T.);
#976=ORIENTED_EDGE('',*,*,#696,.T.);
#977=ORIENTED_EDGE('',*,*,#699,.F.);
#978=ORIENTED_EDGE('',*,*,#700,.T.);
#979=ORIENTED_EDGE('',*,*,#701,.F.);
#980=ORIENTED_EDGE('',*,*,#692,.F.);
#981=ORIENTED_EDGE('',*,*,#684,.T.);
#982=ORIENTED_EDGE('',*,*,#702,.F.);
#983=ORIENTED_EDGE('',*,*,#700,.F.);
#984=ORIENTED_EDGE('',*,*,#703,.T.);
#985=ORIENTED_EDGE('',*,*,#699,.T.);
#986=ORIENTED_EDGE('',*,*,#698,.F.);
#987=ORIENTED_EDGE('',*,*,#693,.T.);
#988=ORIENTED_EDGE('',*,*,#703,.F.);
#989=ORIENTED_EDGE('',*,*,#677,.T.);
#990=ORIENTED_EDGE('',*,*,#697,.T.);
#991=ORIENTED_EDGE('',*,*,#701,.T.);
#992=ORIENTED_EDGE('',*,*,#702,.T.);
#993=ORIENTED_EDGE('',*,*,#679,.F.);
#994=ORIENTED_EDGE('',*,*,#704,.T.);
#995=ORIENTED_EDGE('',*,*,#705,.T.);
#996=ORIENTED_EDGE('',*,*,#706,.T.);
#997=ORIENTED_EDGE('',*,*,#705,.F.);
#998=ORIENTED_EDGE('',*,*,#707,.T.);
#999=ORIENTED_EDGE('',*,*,#708,.T.);
#1000=ORIENTED_EDGE('',*,*,#709,.F.);
#1001=ORIENTED_EDGE('',*,*,#683,.F.);
#1002=ORIENTED_EDGE('',*,*,#710,.T.);
#1003=ORIENTED_EDGE('',*,*,#711,.T.);
#1004=ORIENTED_EDGE('',*,*,#707,.F.);
#1005=ORIENTED_EDGE('',*,*,#704,.F.);
#1006=ORIENTED_EDGE('',*,*,#650,.F.);
#1007=ORIENTED_EDGE('',*,*,#682,.F.);
#1008=ORIENTED_EDGE('',*,*,#712,.T.);
#1009=ORIENTED_EDGE('',*,*,#713,.T.);
#1010=ORIENTED_EDGE('',*,*,#710,.F.);
#1011=ORIENTED_EDGE('',*,*,#686,.F.);
#1012=ORIENTED_EDGE('',*,*,#695,.F.);
#1013=ORIENTED_EDGE('',*,*,#656,.T.);
#1014=ORIENTED_EDGE('',*,*,#706,.F.);
#1015=ORIENTED_EDGE('',*,*,#709,.T.);
#1016=ORIENTED_EDGE('',*,*,#714,.T.);
#1017=ORIENTED_EDGE('',*,*,#712,.F.);
#1018=ORIENTED_EDGE('',*,*,#681,.F.);
#1019=ORIENTED_EDGE('',*,*,#714,.F.);
#1020=ORIENTED_EDGE('',*,*,#708,.F.);
#1021=ORIENTED_EDGE('',*,*,#711,.F.);
#1022=ORIENTED_EDGE('',*,*,#713,.F.);
#1023=ORIENTED_EDGE('',*,*,#715,.F.);
#1024=ORIENTED_EDGE('',*,*,#716,.T.);
#1025=ORIENTED_EDGE('',*,*,#717,.T.);
#1026=ORIENTED_EDGE('',*,*,#716,.F.);
#1027=ORIENTED_EDGE('',*,*,#715,.T.);
#1028=ORIENTED_EDGE('',*,*,#717,.F.);
#1029=ORIENTED_EDGE('',*,*,#718,.F.);
#1030=ORIENTED_EDGE('',*,*,#719,.T.);
#1031=ORIENTED_EDGE('',*,*,#720,.T.);
#1032=ORIENTED_EDGE('',*,*,#719,.F.);
#1033=ORIENTED_EDGE('',*,*,#718,.T.);
#1034=ORIENTED_EDGE('',*,*,#720,.F.);
#1035=PLANE('',#1192);
#1036=PLANE('',#1193);
#1037=PLANE('',#1194);
#1038=PLANE('',#1195);
#1039=PLANE('',#1196);
#1040=PLANE('',#1197);
#1041=PLANE('',#1198);
#1042=PLANE('',#1199);
#1043=PLANE('',#1200);
#1044=PLANE('',#1201);
#1045=PLANE('',#1202);
#1046=PLANE('',#1207);
#1047=PLANE('',#1208);
#1048=PLANE('',#1209);
#1049=PLANE('',#1213);
#1050=PLANE('',#1214);
#1051=PLANE('',#1215);
#1052=PLANE('',#1216);
#1053=PLANE('',#1217);
#1054=PLANE('',#1218);
#1055=PLANE('',#1219);
#1056=PLANE('',#1220);
#1057=PLANE('',#1221);
#1058=PLANE('',#1222);
#1059=PLANE('',#1223);
#1060=PLANE('',#1224);
#1061=PLANE('',#1225);
#1062=PLANE('',#1226);
#1063=PLANE('',#1227);
#1064=PLANE('',#1228);
#1065=PLANE('',#1229);
#1066=PLANE('',#1230);
#1067=PLANE('',#1231);
#1068=PLANE('',#1232);
#1069=PLANE('',#1236);
#1070=PLANE('',#1237);
#1071=PLANE('',#1239);
#1072=PLANE('',#1243);
#1073=PLANE('',#1244);
#1074=PLANE('',#1245);
#1075=PLANE('',#1246);
#1076=PLANE('',#1247);
#1077=PLANE('',#1248);
#1078=PLANE('',#1249);
#1079=PLANE('',#1250);
#1080=PLANE('',#1251);
#1081=PLANE('',#1252);
#1082=PLANE('',#1253);
#1083=PLANE('',#1254);
#1084=PLANE('',#1255);
#1085=PLANE('',#1256);
#1086=PLANE('',#1257);
#1087=PLANE('',#1258);
#1088=PLANE('',#1259);
#1089=PLANE('',#1260);
#1090=PLANE('',#1261);
#1091=PLANE('',#1262);
#1092=PLANE('',#1263);
#1093=PLANE('',#1267);
#1094=PLANE('',#1268);
#1095=PLANE('',#1272);
#1096=PLANE('',#1273);
#1097=ADVANCED_FACE('',(#43),#1035,.T.);
#1098=ADVANCED_FACE('',(#44),#1036,.T.);
#1099=ADVANCED_FACE('',(#45),#1037,.T.);
#1100=ADVANCED_FACE('',(#46),#1038,.T.);
#1101=ADVANCED_FACE('',(#47),#1039,.T.);
#1102=ADVANCED_FACE('',(#48),#1040,.T.);
#1103=ADVANCED_FACE('',(#49),#1041,.T.);
#1104=ADVANCED_FACE('',(#50),#1042,.T.);
#1105=ADVANCED_FACE('',(#51),#1043,.F.);
#1106=ADVANCED_FACE('',(#52),#1044,.T.);
#1107=ADVANCED_FACE('',(#53),#1045,.T.);
#1108=ADVANCED_FACE('',(#54),#13,.F.);
#1109=ADVANCED_FACE('',(#55),#1046,.T.);
#1110=ADVANCED_FACE('',(#56),#1047,.T.);
#1111=ADVANCED_FACE('',(#57),#1048,.T.);
#1112=ADVANCED_FACE('',(#58),#14,.T.);
#1113=ADVANCED_FACE('',(#59),#1049,.T.);
#1114=ADVANCED_FACE('',(#60),#1050,.T.);
#1115=ADVANCED_FACE('',(#61),#1051,.T.);
#1116=ADVANCED_FACE('',(#62),#1052,.T.);
#1117=ADVANCED_FACE('',(#63),#1053,.T.);
#1118=ADVANCED_FACE('',(#64),#1054,.T.);
#1119=ADVANCED_FACE('',(#65),#1055,.T.);
#1120=ADVANCED_FACE('',(#66),#1056,.T.);
#1121=ADVANCED_FACE('',(#67),#1057,.T.);
#1122=ADVANCED_FACE('',(#68),#1058,.T.);
#1123=ADVANCED_FACE('',(#69),#1059,.T.);
#1124=ADVANCED_FACE('',(#70),#1060,.F.);
#1125=ADVANCED_FACE('',(#71),#1061,.T.);
#1126=ADVANCED_FACE('',(#72),#1062,.T.);
#1127=ADVANCED_FACE('',(#73),#1063,.F.);
#1128=ADVANCED_FACE('',(#74),#1064,.T.);
#1129=ADVANCED_FACE('',(#75),#1065,.T.);
#1130=ADVANCED_FACE('',(#76),#1066,.T.);
#1131=ADVANCED_FACE('',(#77),#1067,.T.);
#1132=ADVANCED_FACE('',(#78),#1068,.T.);
#1133=ADVANCED_FACE('',(#79),#15,.T.);
#1134=ADVANCED_FACE('',(#80),#1069,.F.);
#1135=ADVANCED_FACE('',(#81),#1070,.F.);
#1136=ADVANCED_FACE('',(#82),#1071,.F.);
#1137=ADVANCED_FACE('',(#83),#16,.F.);
#1138=ADVANCED_FACE('',(#84),#1072,.T.);
#1139=ADVANCED_FACE('',(#85),#1073,.T.);
#1140=ADVANCED_FACE('',(#86),#1074,.F.);
#1141=ADVANCED_FACE('',(#87),#1075,.F.);
#1142=ADVANCED_FACE('',(#88),#1076,.F.);
#1143=ADVANCED_FACE('',(#89),#1077,.F.);
#1144=ADVANCED_FACE('',(#90),#1078,.F.);
#1145=ADVANCED_FACE('',(#91),#1079,.F.);
#1146=ADVANCED_FACE('',(#92),#1080,.F.);
#1147=ADVANCED_FACE('',(#93),#1081,.F.);
#1148=ADVANCED_FACE('',(#94),#1082,.F.);
#1149=ADVANCED_FACE('',(#95),#1083,.F.);
#1150=ADVANCED_FACE('',(#96),#1084,.F.);
#1151=ADVANCED_FACE('',(#97),#1085,.F.);
#1152=ADVANCED_FACE('',(#98),#1086,.T.);
#1153=ADVANCED_FACE('',(#99),#1087,.T.);
#1154=ADVANCED_FACE('',(#100),#1088,.F.);
#1155=ADVANCED_FACE('',(#101),#1089,.F.);
#1156=ADVANCED_FACE('',(#102),#1090,.F.);
#1157=ADVANCED_FACE('',(#103),#1091,.F.);
#1158=ADVANCED_FACE('',(#104),#1092,.F.);
#1159=ADVANCED_FACE('',(#105),#17,.T.);
#1160=ADVANCED_FACE('',(#106),#1093,.T.);
#1161=ADVANCED_FACE('',(#107),#1094,.F.);
#1162=ADVANCED_FACE('',(#108),#18,.T.);
#1163=ADVANCED_FACE('',(#109),#1095,.T.);
#1164=ADVANCED_FACE('',(#110),#1096,.F.);
#1165=CLOSED_SHELL('',(#1097,#1098,#1099,#1100,#1101,#1102,#1103,#1104,
#1105,#1106));
#1166=CLOSED_SHELL('',(#1107,#1108,#1109,#1110,#1111,#1112,#1113,#1114,
#1115,#1116,#1117,#1118,#1119,#1120,#1121,#1122,#1123,#1124,#1125,#1126,
#1127,#1128,#1129,#1130,#1131,#1132));
#1167=CLOSED_SHELL('',(#1133,#1134,#1135,#1136,#1137,#1138,#1139,#1140,
#1141,#1142,#1143,#1144,#1145,#1146,#1147,#1148,#1149,#1150,#1151,#1152,
#1153,#1154,#1155,#1156,#1157,#1158));
#1168=CLOSED_SHELL('',(#1159,#1160,#1161));
#1169=CLOSED_SHELL('',(#1162,#1163,#1164));
#1170=DERIVED_UNIT_ELEMENT(#1173,1.);
#1171=DERIVED_UNIT_ELEMENT(#1913,-3.);
#1172=DIMENSIONAL_EXPONENTS(0.,1.,0.,0.,0.,0.,0.);
#1173=(
CONVERSION_BASED_UNIT('gram',#1175)
MASS_UNIT()
NAMED_UNIT(#1172)
);
#1174=(
MASS_UNIT()
NAMED_UNIT(*)
SI_UNIT(.KILO.,.GRAM.)
);
#1175=MASS_MEASURE_WITH_UNIT(MASS_MEASURE(0.001),#1174);
#1176=DERIVED_UNIT((#1170,#1171));
#1177=MEASURE_REPRESENTATION_ITEM('density measure',
POSITIVE_RATIO_MEASURE(1.),#1176);
#1178=PROPERTY_DEFINITION_REPRESENTATION(#1183,#1180);
#1179=PROPERTY_DEFINITION_REPRESENTATION(#1184,#1181);
#1180=REPRESENTATION('material name',(#1182),#1910);
#1181=REPRESENTATION('density',(#1177),#1910);
#1182=DESCRIPTIVE_REPRESENTATION_ITEM('\X2\04220438043F043E0432044B0435\X0\',
'\X2\04220438043F043E0432044B0435\X0\');
#1183=PROPERTY_DEFINITION('material property','material name',#1920);
#1184=PROPERTY_DEFINITION('material property','density of part',#1920);
#1185=DATE_TIME_ROLE('creation_date');
#1186=APPLIED_DATE_AND_TIME_ASSIGNMENT(#1187,#1185,(#1920));
#1187=DATE_AND_TIME(#1188,#1189);
#1188=CALENDAR_DATE(2025,29,11);
#1189=LOCAL_TIME(0,0,0.,#1190);
#1190=COORDINATED_UNIVERSAL_TIME_OFFSET(0,0,.BEHIND.);
#1191=AXIS2_PLACEMENT_3D('',#1583,#1274,#1275);
#1192=AXIS2_PLACEMENT_3D('',#1584,#1276,#1277);
#1193=AXIS2_PLACEMENT_3D('',#1593,#1282,#1283);
#1194=AXIS2_PLACEMENT_3D('',#1599,#1287,#1288);
#1195=AXIS2_PLACEMENT_3D('',#1605,#1292,#1293);
#1196=AXIS2_PLACEMENT_3D('',#1611,#1297,#1298);
#1197=AXIS2_PLACEMENT_3D('',#1617,#1302,#1303);
#1198=AXIS2_PLACEMENT_3D('',#1620,#1306,#1307);
#1199=AXIS2_PLACEMENT_3D('',#1622,#1309,#1310);
#1200=AXIS2_PLACEMENT_3D('',#1624,#1312,#1313);
#1201=AXIS2_PLACEMENT_3D('',#1625,#1314,#1315);
#1202=AXIS2_PLACEMENT_3D('',#1626,#1316,#1317);
#1203=AXIS2_PLACEMENT_3D('',#1629,#1318,#1319);
#1204=AXIS2_PLACEMENT_3D('',#1631,#1321,#1322);
#1205=AXIS2_PLACEMENT_3D('',#1633,#1323,#1324);
#1206=AXIS2_PLACEMENT_3D('',#1637,#1326,#1327);
#1207=AXIS2_PLACEMENT_3D('',#1639,#1329,#1330);
#1208=AXIS2_PLACEMENT_3D('',#1645,#1334,#1335);
#1209=AXIS2_PLACEMENT_3D('',#1654,#1340,#1341);
#1210=AXIS2_PLACEMENT_3D('',#1657,#1344,#1345);
#1211=AXIS2_PLACEMENT_3D('',#1659,#1346,#1347);
#1212=AXIS2_PLACEMENT_3D('',#1661,#1348,#1349);
#1213=AXIS2_PLACEMENT_3D('',#1663,#1351,#1352);
#1214=AXIS2_PLACEMENT_3D('',#1667,#1355,#1356);
#1215=AXIS2_PLACEMENT_3D('',#1678,#1362,#1363);
#1216=AXIS2_PLACEMENT_3D('',#1687,#1368,#1369);
#1217=AXIS2_PLACEMENT_3D('',#1693,#1373,#1374);
#1218=AXIS2_PLACEMENT_3D('',#1698,#1378,#1379);
#1219=AXIS2_PLACEMENT_3D('',#1700,#1381,#1382);
#1220=AXIS2_PLACEMENT_3D('',#1710,#1388,#1389);
#1221=AXIS2_PLACEMENT_3D('',#1718,#1394,#1395);
#1222=AXIS2_PLACEMENT_3D('',#1724,#1399,#1400);
#1223=AXIS2_PLACEMENT_3D('',#1727,#1403,#1404);
#1224=AXIS2_PLACEMENT_3D('',#1728,#1405,#1406);
#1225=AXIS2_PLACEMENT_3D('',#1730,#1408,#1409);
#1226=AXIS2_PLACEMENT_3D('',#1733,#1412,#1413);
#1227=AXIS2_PLACEMENT_3D('',#1735,#1415,#1416);
#1228=AXIS2_PLACEMENT_3D('',#1741,#1420,#1421);
#1229=AXIS2_PLACEMENT_3D('',#1747,#1425,#1426);
#1230=AXIS2_PLACEMENT_3D('',#1751,#1429,#1430);
#1231=AXIS2_PLACEMENT_3D('',#1755,#1433,#1434);
#1232=AXIS2_PLACEMENT_3D('',#1757,#1436,#1437);
#1233=AXIS2_PLACEMENT_3D('',#1758,#1438,#1439);
#1234=AXIS2_PLACEMENT_3D('',#1761,#1440,#1441);
#1235=AXIS2_PLACEMENT_3D('',#1765,#1443,#1444);
#1236=AXIS2_PLACEMENT_3D('',#1767,#1446,#1447);
#1237=AXIS2_PLACEMENT_3D('',#1773,#1451,#1452);
#1238=AXIS2_PLACEMENT_3D('',#1789,#1460,#1461);
#1239=AXIS2_PLACEMENT_3D('',#1793,#1464,#1465);
#1240=AXIS2_PLACEMENT_3D('',#1795,#1466,#1467);
#1241=AXIS2_PLACEMENT_3D('',#1797,#1469,#1470);
#1242=AXIS2_PLACEMENT_3D('',#1801,#1472,#1473);
#1243=AXIS2_PLACEMENT_3D('',#1803,#1475,#1476);
#1244=AXIS2_PLACEMENT_3D('',#1807,#1479,#1480);
#1245=AXIS2_PLACEMENT_3D('',#1809,#1482,#1483);
#1246=AXIS2_PLACEMENT_3D('',#1822,#1491,#1492);
#1247=AXIS2_PLACEMENT_3D('',#1826,#1495,#1496);
#1248=AXIS2_PLACEMENT_3D('',#1834,#1501,#1502);
#1249=AXIS2_PLACEMENT_3D('',#1840,#1506,#1507);
#1250=AXIS2_PLACEMENT_3D('',#1842,#1509,#1510);
#1251=AXIS2_PLACEMENT_3D('',#1844,#1512,#1513);
#1252=AXIS2_PLACEMENT_3D('',#1845,#1514,#1515);
#1253=AXIS2_PLACEMENT_3D('',#1852,#1520,#1521);
#1254=AXIS2_PLACEMENT_3D('',#1858,#1525,#1526);
#1255=AXIS2_PLACEMENT_3D('',#1864,#1530,#1531);
#1256=AXIS2_PLACEMENT_3D('',#1867,#1534,#1535);
#1257=AXIS2_PLACEMENT_3D('',#1868,#1536,#1537);
#1258=AXIS2_PLACEMENT_3D('',#1869,#1538,#1539);
#1259=AXIS2_PLACEMENT_3D('',#1875,#1543,#1544);
#1260=AXIS2_PLACEMENT_3D('',#1881,#1548,#1549);
#1261=AXIS2_PLACEMENT_3D('',#1885,#1552,#1553);
#1262=AXIS2_PLACEMENT_3D('',#1889,#1556,#1557);
#1263=AXIS2_PLACEMENT_3D('',#1891,#1559,#1560);
#1264=AXIS2_PLACEMENT_3D('',#1892,#1561,#1562);
#1265=AXIS2_PLACEMENT_3D('',#1894,#1563,#1564);
#1266=AXIS2_PLACEMENT_3D('',#1897,#1566,#1567);
#1267=AXIS2_PLACEMENT_3D('',#1898,#1568,#1569);
#1268=AXIS2_PLACEMENT_3D('',#1899,#1570,#1571);
#1269=AXIS2_PLACEMENT_3D('',#1900,#1572,#1573);
#1270=AXIS2_PLACEMENT_3D('',#1902,#1574,#1575);
#1271=AXIS2_PLACEMENT_3D('',#1905,#1577,#1578);
#1272=AXIS2_PLACEMENT_3D('',#1906,#1579,#1580);
#1273=AXIS2_PLACEMENT_3D('',#1907,#1581,#1582);
#1274=DIRECTION('axis',(0.,0.,1.));
#1275=DIRECTION('refdir',(1.,0.,0.));
#1276=DIRECTION('center_axis',(0.,-0.164398987305357,0.986393923832144));
#1277=DIRECTION('ref_axis',(1.,0.,0.));
#1278=DIRECTION('',(0.162221421130763,0.973328526784575,0.162221421130763));
#1279=DIRECTION('',(1.,0.,0.));
#1280=DIRECTION('',(0.162221421130763,-0.973328526784575,-0.162221421130763));
#1281=DIRECTION('',(1.,0.,0.));
#1282=DIRECTION('center_axis',(0.986393923832144,-0.164398987305357,0.));
#1283=DIRECTION('ref_axis',(0.,0.,-1.));
#1284=DIRECTION('',(0.,0.,-1.));
#1285=DIRECTION('',(-0.162221421130763,-0.973328526784575,0.162221421130763));
#1286=DIRECTION('',(0.,0.,-1.));
#1287=DIRECTION('center_axis',(0.,-0.164398987305357,-0.986393923832144));
#1288=DIRECTION('ref_axis',(-1.,0.,0.));
#1289=DIRECTION('',(-0.162221421130763,0.973328526784575,-0.162221421130763));
#1290=DIRECTION('',(-1.,0.,0.));
#1291=DIRECTION('',(-1.,0.,0.));
#1292=DIRECTION('center_axis',(0.,0.164398987305357,-0.986393923832144));
#1293=DIRECTION('ref_axis',(-1.,0.,0.));
#1294=DIRECTION('',(0.162221421130763,0.973328526784575,0.162221421130763));
#1295=DIRECTION('',(1.,0.,0.));
#1296=DIRECTION('',(0.162221421130763,-0.973328526784575,-0.162221421130763));
#1297=DIRECTION('center_axis',(0.,1.,0.));
#1298=DIRECTION('ref_axis',(0.,0.,1.));
#1299=DIRECTION('',(0.,0.,-1.));
#1300=DIRECTION('',(-1.,0.,0.));
#1301=DIRECTION('',(0.,0.,1.));
#1302=DIRECTION('center_axis',(-0.986393923832144,0.164398987305357,0.));
#1303=DIRECTION('ref_axis',(0.,0.,1.));
#1304=DIRECTION('',(0.,0.,-1.));
#1305=DIRECTION('',(-0.162221421130763,-0.973328526784575,0.162221421130763));
#1306=DIRECTION('center_axis',(0.,0.164398987305357,0.986393923832144));
#1307=DIRECTION('ref_axis',(1.,0.,0.));
#1308=DIRECTION('',(-0.162221421130763,0.973328526784575,-0.162221421130763));
#1309=DIRECTION('center_axis',(-0.986393923832144,-0.164398987305357,0.));
#1310=DIRECTION('ref_axis',(0.,0.,1.));
#1311=DIRECTION('',(0.,0.,1.));
#1312=DIRECTION('center_axis',(0.,1.,0.));
#1313=DIRECTION('ref_axis',(0.,0.,1.));
#1314=DIRECTION('center_axis',(0.986393923832144,0.164398987305357,0.));
#1315=DIRECTION('ref_axis',(0.,0.,-1.));
#1316=DIRECTION('center_axis',(-1.,0.,0.));
#1317=DIRECTION('ref_axis',(0.,1.,6.12323399573677E-17));
#1318=DIRECTION('center_axis',(-1.,0.,0.));
#1319=DIRECTION('ref_axis',(9.81307786677358E-16,0.707106781186548,-0.707106781186548));
#1320=DIRECTION('',(0.,-6.93889390390723E-17,1.));
#1321=DIRECTION('center_axis',(1.,-2.56790659251631E-32,3.70074341541719E-16));
#1322=DIRECTION('ref_axis',(9.81307786677358E-16,0.707106781186548,-0.707106781186548));
#1323=DIRECTION('center_axis',(-1.,0.,0.));
#1324=DIRECTION('ref_axis',(9.81307786677358E-16,0.707106781186548,-0.707106781186548));
#1325=DIRECTION('',(1.,-2.56790659251631E-32,3.70074341541719E-16));
#1326=DIRECTION('center_axis',(1.,0.,0.));
#1327=DIRECTION('ref_axis',(9.81307786677358E-16,0.707106781186548,-0.707106781186548));
#1328=DIRECTION('',(-1.,2.56790659251631E-32,-3.70074341541719E-16));
#1329=DIRECTION('center_axis',(-3.70074341541719E-16,-8.5401771125012E-17,
1.));
#1330=DIRECTION('ref_axis',(-1.,2.56790659251631E-32,-3.70074341541719E-16));
#1331=DIRECTION('',(0.,-1.,-8.5401771125012E-17));
#1332=DIRECTION('',(-1.,2.56790659251631E-32,-3.70074341541719E-16));
#1333=DIRECTION('',(0.,-1.,-8.5401771125012E-17));
#1334=DIRECTION('center_axis',(3.70074341541719E-16,8.5401771125012E-17,
-1.));
#1335=DIRECTION('ref_axis',(1.,-2.56790659251631E-32,3.70074341541719E-16));
#1336=DIRECTION('',(-1.,0.,0.));
#1337=DIRECTION('',(0.,-1.,-8.5401771125012E-17));
#1338=DIRECTION('',(1.,-2.56790659251631E-32,3.70074341541719E-16));
#1339=DIRECTION('',(0.,-1.,-8.5401771125012E-17));
#1340=DIRECTION('center_axis',(0.,-1.,-8.5401771125012E-17));
#1341=DIRECTION('ref_axis',(0.,8.5401771125012E-17,-1.));
#1342=DIRECTION('',(9.25185853854302E-17,-6.93889390390723E-17,1.));
#1343=DIRECTION('',(-9.3125641688407E-17,6.93889390390723E-17,-1.));
#1344=DIRECTION('center_axis',(1.,0.,0.));
#1345=DIRECTION('ref_axis',(0.,0.707106781186547,-0.707106781186548));
#1346=DIRECTION('center_axis',(-1.,0.,0.));
#1347=DIRECTION('ref_axis',(0.,0.707106781186547,-0.707106781186548));
#1348=DIRECTION('center_axis',(1.,0.,0.));
#1349=DIRECTION('ref_axis',(0.,0.707106781186547,-0.707106781186548));
#1350=DIRECTION('',(1.,0.,0.));
#1351=DIRECTION('center_axis',(1.,0.,0.));
#1352=DIRECTION('ref_axis',(0.,-1.,-6.12323399573677E-17));
#1353=DIRECTION('',(0.,6.93889390390723E-17,-1.));
#1354=DIRECTION('',(0.,1.,0.));
#1355=DIRECTION('center_axis',(1.,0.,0.));
#1356=DIRECTION('ref_axis',(0.,-1.,-6.12323399573677E-17));
#1357=DIRECTION('',(0.,-1.,0.));
#1358=DIRECTION('',(0.,6.93889390390723E-17,-1.));
#1359=DIRECTION('',(0.,-0.287347885566346,-0.957826285221151));
#1360=DIRECTION('',(0.,-1.,-6.12323399573676E-17));
#1361=DIRECTION('',(0.,6.93889390390723E-17,-1.));
#1362=DIRECTION('center_axis',(0.,1.,0.));
#1363=DIRECTION('ref_axis',(0.,0.,-1.));
#1364=DIRECTION('',(0.,0.,1.));
#1365=DIRECTION('',(-1.,0.,0.));
#1366=DIRECTION('',(0.,0.,-1.));
#1367=DIRECTION('',(-1.,0.,0.));
#1368=DIRECTION('center_axis',(0.,0.,1.));
#1369=DIRECTION('ref_axis',(0.,1.,0.));
#1370=DIRECTION('',(0.,-1.,0.));
#1371=DIRECTION('',(0.,1.,0.));
#1372=DIRECTION('',(-1.,0.,0.));
#1373=DIRECTION('center_axis',(0.,0.,-1.));
#1374=DIRECTION('ref_axis',(0.,-1.,0.));
#1375=DIRECTION('',(0.,1.,0.));
#1376=DIRECTION('',(-1.,0.,0.));
#1377=DIRECTION('',(0.,-1.,0.));
#1378=DIRECTION('center_axis',(-1.,0.,0.));
#1379=DIRECTION('ref_axis',(0.,0.,1.));
#1380=DIRECTION('',(0.,-6.93889390390723E-17,1.));
#1381=DIRECTION('center_axis',(0.,0.957826285221151,-0.287347885566346));
#1382=DIRECTION('ref_axis',(0.,0.287347885566346,0.957826285221151));
#1383=DIRECTION('',(1.,0.,0.));
#1384=DIRECTION('',(0.,0.287347885566346,0.957826285221151));
#1385=DIRECTION('',(0.276172385369497,-0.276172385369497,-0.920574617898323));
#1386=DIRECTION('',(1.,0.,0.));
#1387=DIRECTION('',(0.276172385369497,0.276172385369497,0.920574617898323));
#1388=DIRECTION('center_axis',(-0.957826285221151,1.75949834150292E-17,
-0.287347885566345));
#1389=DIRECTION('ref_axis',(-0.287347885566345,0.,0.957826285221151));
#1390=DIRECTION('',(-0.276172385369497,-0.276172385369497,0.920574617898323));
#1391=DIRECTION('',(0.,-1.,-6.12323399573677E-17));
#1392=DIRECTION('',(0.,1.,6.12323399573676E-17));
#1393=DIRECTION('',(0.,-1.,-6.12323399573677E-17));
#1394=DIRECTION('center_axis',(0.,-0.957826285221152,-0.287347885566345));
#1395=DIRECTION('ref_axis',(0.,0.287347885566345,-0.957826285221151));
#1396=DIRECTION('',(1.,0.,0.));
#1397=DIRECTION('',(-0.276172385369497,0.276172385369497,-0.920574617898323));
#1398=DIRECTION('',(-1.,0.,0.));
#1399=DIRECTION('center_axis',(0.957826285221151,1.75949834150292E-17,-0.287347885566345));
#1400=DIRECTION('ref_axis',(-0.287347885566345,0.,-0.957826285221151));
#1401=DIRECTION('',(0.,1.,6.12323399573677E-17));
#1402=DIRECTION('',(0.,1.,6.12323399573677E-17));
#1403=DIRECTION('center_axis',(0.,0.,1.));
#1404=DIRECTION('ref_axis',(1.,0.,0.));
#1405=DIRECTION('center_axis',(0.,-6.12323399573677E-17,1.));
#1406=DIRECTION('ref_axis',(1.,0.,0.));
#1407=DIRECTION('',(-1.,0.,0.));
#1408=DIRECTION('center_axis',(0.,-1.,-6.93889390390723E-17));
#1409=DIRECTION('ref_axis',(-1.,0.,0.));
#1410=DIRECTION('',(0.,6.93889390390723E-17,-1.));
#1411=DIRECTION('',(0.,6.93889390390723E-17,-1.));
#1412=DIRECTION('center_axis',(-1.,0.,0.));
#1413=DIRECTION('ref_axis',(0.,1.,6.12323399573677E-17));
#1414=DIRECTION('',(0.,6.93889390390723E-17,-1.));
#1415=DIRECTION('center_axis',(1.,0.,0.));
#1416=DIRECTION('ref_axis',(0.,0.,-1.));
#1417=DIRECTION('',(0.,1.,0.));
#1418=DIRECTION('',(0.,0.,-1.));
#1419=DIRECTION('',(0.,-1.,0.));
#1420=DIRECTION('center_axis',(0.,-1.,0.));
#1421=DIRECTION('ref_axis',(0.,0.,-1.));
#1422=DIRECTION('',(1.,0.,0.));
#1423=DIRECTION('',(0.,0.,-1.));
#1424=DIRECTION('',(1.,0.,0.));
#1425=DIRECTION('center_axis',(0.,0.,1.));
#1426=DIRECTION('ref_axis',(0.,-1.,0.));
#1427=DIRECTION('',(0.,-1.,0.));
#1428=DIRECTION('',(1.,0.,0.));
#1429=DIRECTION('center_axis',(0.,1.,6.93889390390723E-17));
#1430=DIRECTION('ref_axis',(0.,-6.93889390390723E-17,1.));
#1431=DIRECTION('',(0.,-6.93889390390723E-17,1.));
#1432=DIRECTION('',(1.,0.,0.));
#1433=DIRECTION('center_axis',(0.,0.,-1.));
#1434=DIRECTION('ref_axis',(0.,1.,0.));
#1435=DIRECTION('',(0.,1.,0.));
#1436=DIRECTION('center_axis',(1.,0.,0.));
#1437=DIRECTION('ref_axis',(0.,0.,-1.));
#1438=DIRECTION('center_axis',(1.,0.,0.));
#1439=DIRECTION('ref_axis',(0.,0.707106781186547,0.707106781186548));
#1440=DIRECTION('center_axis',(-1.,0.,0.));
#1441=DIRECTION('ref_axis',(0.,0.707106781186547,0.707106781186548));
#1442=DIRECTION('',(-1.,0.,0.));
#1443=DIRECTION('center_axis',(1.,0.,0.));
#1444=DIRECTION('ref_axis',(0.,0.707106781186547,0.707106781186548));
#1445=DIRECTION('',(1.,0.,0.));
#1446=DIRECTION('center_axis',(0.,-6.93889390390723E-17,-1.));
#1447=DIRECTION('ref_axis',(-1.,0.,0.));
#1448=DIRECTION('',(0.,1.,-6.12323399573677E-17));
#1449=DIRECTION('',(-1.,2.56790659251631E-32,3.70074341541719E-16));
#1450=DIRECTION('',(0.,-1.,8.5401771125012E-17));
#1451=DIRECTION('center_axis',(1.,0.,0.));
#1452=DIRECTION('ref_axis',(0.,1.,-6.12323399573677E-17));
#1453=DIRECTION('',(0.,6.93889390390723E-17,1.));
#1454=DIRECTION('',(0.,0.287347885566346,-0.957826285221151));
#1455=DIRECTION('',(0.,1.,-6.12323399573676E-17));
#1456=DIRECTION('',(0.,6.93889390390723E-17,1.));
#1457=DIRECTION('',(0.,-1.,0.));
#1458=DIRECTION('',(0.,0.,-1.));
#1459=DIRECTION('',(0.,1.,0.));
#1460=DIRECTION('center_axis',(-1.,0.,0.));
#1461=DIRECTION('ref_axis',(2.61682076447296E-16,0.707106781186548,0.707106781186548));
#1462=DIRECTION('',(0.,-1.,8.5401771125012E-17));
#1463=DIRECTION('',(-3.70074341541719E-16,-6.93889390390723E-17,-1.));
#1464=DIRECTION('center_axis',(1.,0.,0.));
#1465=DIRECTION('ref_axis',(0.,1.,-6.12323399573677E-17));
#1466=DIRECTION('center_axis',(-1.,0.,0.));
#1467=DIRECTION('ref_axis',(2.61682076447296E-16,0.707106781186548,0.707106781186548));
#1468=DIRECTION('',(0.,6.93889390390723E-17,1.));
#1469=DIRECTION('center_axis',(-1.,2.56790659251631E-32,3.70074341541719E-16));
#1470=DIRECTION('ref_axis',(2.61682076447296E-16,0.707106781186548,0.707106781186548));
#1471=DIRECTION('',(1.,-2.56790659251631E-32,-3.70074341541719E-16));
#1472=DIRECTION('center_axis',(1.,0.,0.));
#1473=DIRECTION('ref_axis',(2.61682076447296E-16,0.707106781186548,0.707106781186548));
#1474=DIRECTION('',(-1.,2.56790659251631E-32,3.70074341541719E-16));
#1475=DIRECTION('center_axis',(-3.70074341541719E-16,-8.5401771125012E-17,
-1.));
#1476=DIRECTION('ref_axis',(1.,-2.56790659251631E-32,-3.70074341541719E-16));
#1477=DIRECTION('',(0.,-1.,8.5401771125012E-17));
#1478=DIRECTION('',(1.,-2.56790659251631E-32,-3.70074341541719E-16));
#1479=DIRECTION('center_axis',(0.,-1.,8.5401771125012E-17));
#1480=DIRECTION('ref_axis',(0.,-8.5401771125012E-17,-1.));
#1481=DIRECTION('',(-9.25185853854302E-17,6.93889390390723E-17,1.));
#1482=DIRECTION('center_axis',(0.,1.,-6.93889390390723E-17));
#1483=DIRECTION('ref_axis',(-1.,0.,0.));
#1484=DIRECTION('',(-1.,0.,0.));
#1485=DIRECTION('',(0.,-6.93889390390723E-17,-1.));
#1486=DIRECTION('',(-1.,0.,0.));
#1487=DIRECTION('',(-1.,0.,0.));
#1488=DIRECTION('',(0.,6.93889390390723E-17,1.));
#1489=DIRECTION('',(0.,6.93889390390723E-17,1.));
#1490=DIRECTION('',(0.,6.93889390390723E-17,1.));
#1491=DIRECTION('center_axis',(-1.,0.,0.));
#1492=DIRECTION('ref_axis',(0.,-1.,6.12323399573677E-17));
#1493=DIRECTION('',(0.,1.,0.));
#1494=DIRECTION('',(0.,6.93889390390723E-17,1.));
#1495=DIRECTION('center_axis',(-1.,0.,0.));
#1496=DIRECTION('ref_axis',(0.,-1.,6.12323399573677E-17));
#1497=DIRECTION('',(0.,-1.,0.));
#1498=DIRECTION('',(0.,-1.,6.12323399573676E-17));
#1499=DIRECTION('',(0.,-0.287347885566346,0.957826285221151));
#1500=DIRECTION('',(0.,6.93889390390723E-17,1.));
#1501=DIRECTION('center_axis',(0.,-1.,0.));
#1502=DIRECTION('ref_axis',(0.,0.,1.));
#1503=DIRECTION('',(-1.,0.,0.));
#1504=DIRECTION('',(0.,0.,1.));
#1505=DIRECTION('',(-1.,0.,0.));
#1506=DIRECTION('center_axis',(0.,0.,1.));
#1507=DIRECTION('ref_axis',(0.,1.,0.));
#1508=DIRECTION('',(0.,1.,0.));
#1509=DIRECTION('center_axis',(0.,0.,-1.));
#1510=DIRECTION('ref_axis',(0.,-1.,0.));
#1511=DIRECTION('',(0.,-1.,0.));
#1512=DIRECTION('center_axis',(1.,0.,0.));
#1513=DIRECTION('ref_axis',(0.,0.,-1.));
#1514=DIRECTION('center_axis',(0.,-0.957826285221151,-0.287347885566346));
#1515=DIRECTION('ref_axis',(0.,0.287347885566346,-0.957826285221151));
#1516=DIRECTION('',(0.276172385369497,0.276172385369497,-0.920574617898323));
#1517=DIRECTION('',(1.,0.,0.));
#1518=DIRECTION('',(0.276172385369497,-0.276172385369497,0.920574617898323));
#1519=DIRECTION('',(1.,0.,0.));
#1520=DIRECTION('center_axis',(0.957826285221151,-1.75949834150292E-17,
-0.287347885566345));
#1521=DIRECTION('ref_axis',(-0.287347885566345,0.,-0.957826285221151));
#1522=DIRECTION('',(-0.276172385369497,-0.276172385369497,-0.920574617898323));
#1523=DIRECTION('',(0.,-1.,6.12323399573677E-17));
#1524=DIRECTION('',(0.,-1.,6.12323399573677E-17));
#1525=DIRECTION('center_axis',(0.,0.957826285221152,-0.287347885566345));
#1526=DIRECTION('ref_axis',(0.,0.287347885566345,0.957826285221151));
#1527=DIRECTION('',(-1.,0.,0.));
#1528=DIRECTION('',(-0.276172385369497,0.276172385369497,0.920574617898323));
#1529=DIRECTION('',(1.,0.,0.));
#1530=DIRECTION('center_axis',(-0.957826285221151,-1.75949834150292E-17,
-0.287347885566345));
#1531=DIRECTION('ref_axis',(-0.287347885566345,0.,0.957826285221151));
#1532=DIRECTION('',(0.,1.,-6.12323399573677E-17));
#1533=DIRECTION('',(0.,1.,-6.12323399573677E-17));
#1534=DIRECTION('center_axis',(0.,0.,1.));
#1535=DIRECTION('ref_axis',(1.,0.,0.));
#1536=DIRECTION('center_axis',(0.,6.12323399573677E-17,1.));
#1537=DIRECTION('ref_axis',(1.,0.,0.));
#1538=DIRECTION('center_axis',(-1.,0.,0.));
#1539=DIRECTION('ref_axis',(0.,0.,1.));
#1540=DIRECTION('',(0.,-1.,0.));
#1541=DIRECTION('',(0.,0.,1.));
#1542=DIRECTION('',(0.,1.,0.));
#1543=DIRECTION('center_axis',(0.,1.,0.));
#1544=DIRECTION('ref_axis',(0.,0.,1.));
#1545=DIRECTION('',(1.,0.,0.));
#1546=DIRECTION('',(0.,0.,1.));
#1547=DIRECTION('',(1.,0.,0.));
#1548=DIRECTION('center_axis',(0.,0.,1.));
#1549=DIRECTION('ref_axis',(0.,-1.,0.));
#1550=DIRECTION('',(1.,0.,0.));
#1551=DIRECTION('',(0.,-1.,0.));
#1552=DIRECTION('center_axis',(0.,-1.,6.93889390390723E-17));
#1553=DIRECTION('ref_axis',(0.,-6.93889390390723E-17,-1.));
#1554=DIRECTION('',(1.,0.,0.));
#1555=DIRECTION('',(0.,-6.93889390390723E-17,-1.));
#1556=DIRECTION('center_axis',(0.,0.,-1.));
#1557=DIRECTION('ref_axis',(0.,1.,0.));
#1558=DIRECTION('',(0.,1.,0.));
#1559=DIRECTION('center_axis',(-1.,0.,0.));
#1560=DIRECTION('ref_axis',(0.,0.,1.));
#1561=DIRECTION('center_axis',(0.,1.,0.));
#1562=DIRECTION('ref_axis',(1.,0.,0.));
#1563=DIRECTION('center_axis',(0.,1.,0.));
#1564=DIRECTION('ref_axis',(1.,0.,0.));
#1565=DIRECTION('',(0.,-1.,0.));
#1566=DIRECTION('center_axis',(0.,1.,0.));
#1567=DIRECTION('ref_axis',(1.,0.,0.));
#1568=DIRECTION('center_axis',(0.,1.,0.));
#1569=DIRECTION('ref_axis',(0.,0.,1.));
#1570=DIRECTION('center_axis',(0.,1.,0.));
#1571=DIRECTION('ref_axis',(0.,0.,1.));
#1572=DIRECTION('center_axis',(0.,1.,0.));
#1573=DIRECTION('ref_axis',(1.,0.,0.));
#1574=DIRECTION('center_axis',(0.,1.,0.));
#1575=DIRECTION('ref_axis',(1.,0.,0.));
#1576=DIRECTION('',(0.,-1.,0.));
#1577=DIRECTION('center_axis',(0.,1.,0.));
#1578=DIRECTION('ref_axis',(1.,0.,0.));
#1579=DIRECTION('center_axis',(0.,1.,0.));
#1580=DIRECTION('ref_axis',(0.,0.,1.));
#1581=DIRECTION('center_axis',(0.,1.,0.));
#1582=DIRECTION('ref_axis',(0.,0.,1.));
#1583=CARTESIAN_POINT('',(0.,0.,0.));
#1584=CARTESIAN_POINT('Origin',(-0.625,0.6,1.9));
#1585=CARTESIAN_POINT('',(1.05,0.,1.8));
#1586=CARTESIAN_POINT('',(1.25,1.2,2.));
#1587=CARTESIAN_POINT('',(1.11480263157895,0.388815789473684,1.86480263157895));
#1588=CARTESIAN_POINT('',(-1.25,1.2,2.));
#1589=CARTESIAN_POINT('',(-0.625,1.2,2.));
#1590=CARTESIAN_POINT('',(-1.05,0.,1.8));
#1591=CARTESIAN_POINT('',(-1.10493421052632,0.329605263157894,1.85493421052632));
#1592=CARTESIAN_POINT('',(-0.625,0.,1.8));
#1593=CARTESIAN_POINT('Origin',(1.15,0.6,1.));
#1594=CARTESIAN_POINT('',(1.05,0.,-1.8));
#1595=CARTESIAN_POINT('',(1.05,0.,1.));
#1596=CARTESIAN_POINT('',(1.25,1.2,-2.));
#1597=CARTESIAN_POINT('',(1.10493421052632,0.329605263157894,-1.85493421052632));
#1598=CARTESIAN_POINT('',(1.25,1.2,1.));
#1599=CARTESIAN_POINT('Origin',(0.625,0.6,-1.9));
#1600=CARTESIAN_POINT('',(-1.05,0.,-1.8));
#1601=CARTESIAN_POINT('',(-1.25,1.2,-2.));
#1602=CARTESIAN_POINT('',(-1.11480263157895,0.388815789473684,-1.86480263157895));
#1603=CARTESIAN_POINT('',(0.625,1.2,-2.));
#1604=CARTESIAN_POINT('',(0.625,0.,-1.8));
#1605=CARTESIAN_POINT('Origin',(0.625,1.8,-1.9));
#1606=CARTESIAN_POINT('',(-1.05,2.4,-1.8));
#1607=CARTESIAN_POINT('',(-1.11480263157895,2.01118421052632,-1.86480263157895));
#1608=CARTESIAN_POINT('',(1.05,2.4,-1.8));
#1609=CARTESIAN_POINT('',(0.625,2.4,-1.8));
#1610=CARTESIAN_POINT('',(1.10493421052632,2.07039473684211,-1.85493421052632));
#1611=CARTESIAN_POINT('Origin',(0.,2.4,0.));
#1612=CARTESIAN_POINT('',(-1.05,2.4,1.8));
#1613=CARTESIAN_POINT('',(-1.05,2.4,-1.));
#1614=CARTESIAN_POINT('',(1.05,2.4,1.8));
#1615=CARTESIAN_POINT('',(-0.625,2.4,1.8));
#1616=CARTESIAN_POINT('',(1.05,2.4,1.));
#1617=CARTESIAN_POINT('Origin',(-1.15,1.8,-1.));
#1618=CARTESIAN_POINT('',(-1.25,1.2,-1.));
#1619=CARTESIAN_POINT('',(-1.10493421052632,2.07039473684211,1.85493421052632));
#1620=CARTESIAN_POINT('Origin',(-0.625,1.8,1.9));
#1621=CARTESIAN_POINT('',(1.11480263157895,2.01118421052632,1.86480263157895));
#1622=CARTESIAN_POINT('Origin',(-1.15,0.6,-1.));
#1623=CARTESIAN_POINT('',(-1.05,0.,-1.));
#1624=CARTESIAN_POINT('Origin',(0.,0.,0.));
#1625=CARTESIAN_POINT('Origin',(1.15,1.8,1.));
#1626=CARTESIAN_POINT('Origin',(-0.375,1.1,-2.));
#1627=CARTESIAN_POINT('',(-0.375,1.1,-3.20039317119492));
#1628=CARTESIAN_POINT('',(-0.375,1.1,-3.2));
#1629=CARTESIAN_POINT('Origin',(-0.375,1.,-3.2));
#1630=CARTESIAN_POINT('',(-0.375,1.1,-2.));
#1631=CARTESIAN_POINT('Origin',(0.375,1.,-3.2));
#1632=CARTESIAN_POINT('',(-0.375,1.,-3.3));
#1633=CARTESIAN_POINT('Origin',(-0.375,1.,-3.2));
#1634=CARTESIAN_POINT('',(0.375,1.,-3.3));
#1635=CARTESIAN_POINT('',(0.375,1.,-3.3));
#1636=CARTESIAN_POINT('',(0.375,1.1,-3.2));
#1637=CARTESIAN_POINT('Origin',(0.375,1.,-3.2));
#1638=CARTESIAN_POINT('',(0.375,1.1,-3.2));
#1639=CARTESIAN_POINT('Origin',(0.375,1.1,-3.3));
#1640=CARTESIAN_POINT('',(-0.375,-5.4,-3.3));
#1641=CARTESIAN_POINT('',(-0.375,1.1,-3.3));
#1642=CARTESIAN_POINT('',(0.375,-5.4,-3.3));
#1643=CARTESIAN_POINT('',(0.375,-5.4,-3.3));
#1644=CARTESIAN_POINT('',(0.375,1.1,-3.3));
#1645=CARTESIAN_POINT('Origin',(-0.375,1.1,-3.5));
#1646=CARTESIAN_POINT('',(0.375,1.1,-3.5));
#1647=CARTESIAN_POINT('',(-0.375,1.1,-3.5));
#1648=CARTESIAN_POINT('',(0.375,1.1,-3.5));
#1649=CARTESIAN_POINT('',(0.375,-5.4,-3.5));
#1650=CARTESIAN_POINT('',(0.375,1.1,-3.5));
#1651=CARTESIAN_POINT('',(-0.375,-5.4,-3.5));
#1652=CARTESIAN_POINT('',(-0.375,-5.4,-3.5));
#1653=CARTESIAN_POINT('',(-0.375,1.1,-3.5));
#1654=CARTESIAN_POINT('Origin',(-6.93889390390723E-17,-5.4,-3.4));
#1655=CARTESIAN_POINT('',(0.375,-5.4,-3.5));
#1656=CARTESIAN_POINT('',(-0.375,-5.4,-3.20039317119492));
#1657=CARTESIAN_POINT('Origin',(0.1875,1.1,-3.3));
#1658=CARTESIAN_POINT('',(0.375,1.3,-3.3));
#1659=CARTESIAN_POINT('Origin',(0.375,1.1,-3.3));
#1660=CARTESIAN_POINT('',(-0.375,1.3,-3.3));
#1661=CARTESIAN_POINT('Origin',(-0.375,1.1,-3.3));
#1662=CARTESIAN_POINT('',(0.1875,1.3,-3.3));
#1663=CARTESIAN_POINT('Origin',(0.375,1.3,-2.));
#1664=CARTESIAN_POINT('',(0.375,1.3,-3.2));
#1665=CARTESIAN_POINT('',(0.375,1.3,-2.));
#1666=CARTESIAN_POINT('',(0.375,1.09968148428655,-3.2));
#1667=CARTESIAN_POINT('Origin',(0.375,1.3,-2.));
#1668=CARTESIAN_POINT('',(0.375,1.3,-2.8));
#1669=CARTESIAN_POINT('',(0.375,1.1,-2.8));
#1670=CARTESIAN_POINT('',(0.375,1.3,-2.8));
#1671=CARTESIAN_POINT('',(0.375,1.3,-2.44946914047758));
#1672=CARTESIAN_POINT('',(0.375,1.3,-2.));
#1673=CARTESIAN_POINT('',(0.375,1.29984074214327,-2.45));
#1674=CARTESIAN_POINT('',(0.375,1.3992739225135,-2.11855606543256));
#1675=CARTESIAN_POINT('',(0.375,1.1,-2.45));
#1676=CARTESIAN_POINT('',(0.375,1.18742037107164,-2.45));
#1677=CARTESIAN_POINT('',(0.375,1.1,-2.));
#1678=CARTESIAN_POINT('Origin',(-0.375,1.29968148428655,-2.80039317119492));
#1679=CARTESIAN_POINT('',(-0.375,1.29968148428655,-3.20039317119492));
#1680=CARTESIAN_POINT('',(-0.375,1.29968148428655,-2.80039317119492));
#1681=CARTESIAN_POINT('',(-0.375,1.29968148428655,-2.40019658559746));
#1682=CARTESIAN_POINT('',(-0.525,1.29968148428655,-3.20039317119492));
#1683=CARTESIAN_POINT('',(-0.375,1.29968148428655,-3.20039317119492));
#1684=CARTESIAN_POINT('',(-0.525,1.29968148428655,-2.80039317119492));
#1685=CARTESIAN_POINT('',(-0.525,1.29968148428655,-2.80039317119492));
#1686=CARTESIAN_POINT('',(-0.375,1.29968148428655,-2.80039317119492));
#1687=CARTESIAN_POINT('Origin',(-0.375,1.1,-2.80039317119492));
#1688=CARTESIAN_POINT('',(-0.375,1.1,-2.80039317119492));
#1689=CARTESIAN_POINT('',(-0.375,1.1,-2.80039317119492));
#1690=CARTESIAN_POINT('',(-0.525,1.1,-2.80039317119492));
#1691=CARTESIAN_POINT('',(-0.525,1.1,-2.80039317119492));
#1692=CARTESIAN_POINT('',(-0.375,1.1,-2.80039317119492));
#1693=CARTESIAN_POINT('Origin',(-0.375,1.29968148428655,-3.20039317119492));
#1694=CARTESIAN_POINT('',(-0.375,1.19984074214327,-3.20039317119492));
#1695=CARTESIAN_POINT('',(-0.525,1.1,-3.20039317119492));
#1696=CARTESIAN_POINT('',(-0.375,1.1,-3.20039317119492));
#1697=CARTESIAN_POINT('',(-0.525,1.29968148428655,-3.20039317119492));
#1698=CARTESIAN_POINT('Origin',(-0.525,1.19984074214327,-3.00039317119492));
#1699=CARTESIAN_POINT('',(-0.525,1.1,-10.));
#1700=CARTESIAN_POINT('Origin',(0.2125,1.37484074214327,-2.2));
#1701=CARTESIAN_POINT('',(-0.375,1.3,-2.44946914047758));
#1702=CARTESIAN_POINT('',(-0.08125,1.3,-2.44946914047758));
#1703=CARTESIAN_POINT('',(-0.375,1.29984074214327,-2.45));
#1704=CARTESIAN_POINT('',(-0.375,1.39101704177956,-2.14607900121238));
#1705=CARTESIAN_POINT('',(-0.525,1.44984074214327,-1.95));
#1706=CARTESIAN_POINT('',(-0.422828389830509,1.34766913197378,-2.29057203389831));
#1707=CARTESIAN_POINT('',(0.525,1.44984074214327,-1.95));
#1708=CARTESIAN_POINT('',(0.425,1.44984074214327,-1.95));
#1709=CARTESIAN_POINT('',(0.429502118644068,1.35434286078734,-2.26832627118644));
#1710=CARTESIAN_POINT('Origin',(-0.45,1.32484074214327,-2.2));
#1711=CARTESIAN_POINT('',(-0.375,1.09984074214327,-2.45));
#1712=CARTESIAN_POINT('',(-0.525,0.949840742143273,-1.95));
#1713=CARTESIAN_POINT('',(-0.429502118644068,1.04533862349921,-2.26832627118644));
#1714=CARTESIAN_POINT('',(-0.525,1.44984074214327,-1.95));
#1715=CARTESIAN_POINT('',(-0.375,1.1,-2.45));
#1716=CARTESIAN_POINT('',(-0.375,1.21242037107164,-2.45));
#1717=CARTESIAN_POINT('',(-0.375,1.32484074214327,-2.45));
#1718=CARTESIAN_POINT('Origin',(-0.2125,1.02484074214327,-2.2));
#1719=CARTESIAN_POINT('',(0.375,1.09984074214327,-2.45));
#1720=CARTESIAN_POINT('',(-0.2125,1.09984074214327,-2.45));
#1721=CARTESIAN_POINT('',(0.525,0.949840742143273,-1.95));
#1722=CARTESIAN_POINT('',(0.422828389830509,1.05201235231276,-2.29057203389831));
#1723=CARTESIAN_POINT('',(-0.425,0.949840742143273,-1.95));
#1724=CARTESIAN_POINT('Origin',(0.45,1.07484074214327,-2.2));
#1725=CARTESIAN_POINT('',(0.525,0.949840742143273,-1.95));
#1726=CARTESIAN_POINT('',(0.375,1.07484074214327,-2.45));
#1727=CARTESIAN_POINT('Origin',(0.,1.19984074214327,-1.95));
#1728=CARTESIAN_POINT('Origin',(-3.46944695195361E-17,1.19984074214327,
-2.45));
#1729=CARTESIAN_POINT('',(0.1875,1.1,-2.45));
#1730=CARTESIAN_POINT('Origin',(0.375,1.1,-2.));
#1731=CARTESIAN_POINT('',(0.375,1.1,-2.5));
#1732=CARTESIAN_POINT('',(-0.375,1.1,-2.));
#1733=CARTESIAN_POINT('Origin',(-0.375,1.1,-2.));
#1734=CARTESIAN_POINT('',(-0.375,1.3,-2.));
#1735=CARTESIAN_POINT('Origin',(0.375,1.19984074214327,-3.));
#1736=CARTESIAN_POINT('',(0.375,1.09968148428655,-3.2));
#1737=CARTESIAN_POINT('',(0.375,1.09968148428655,-3.2));
#1738=CARTESIAN_POINT('',(0.375,1.09968148428655,-2.8));
#1739=CARTESIAN_POINT('',(0.375,1.09968148428655,-2.8));
#1740=CARTESIAN_POINT('',(0.375,1.3,-2.8));
#1741=CARTESIAN_POINT('Origin',(0.375,1.09968148428655,-2.8));
#1742=CARTESIAN_POINT('',(0.525,1.09968148428655,-3.2));
#1743=CARTESIAN_POINT('',(0.375,1.09968148428655,-3.2));
#1744=CARTESIAN_POINT('',(0.525,1.09968148428655,-2.8));
#1745=CARTESIAN_POINT('',(0.525,1.09968148428655,-2.8));
#1746=CARTESIAN_POINT('',(0.375,1.09968148428655,-2.8));
#1747=CARTESIAN_POINT('Origin',(0.375,1.3,-2.8));
#1748=CARTESIAN_POINT('',(0.525,1.3,-2.8));
#1749=CARTESIAN_POINT('',(0.525,1.3,-2.8));
#1750=CARTESIAN_POINT('',(0.375,1.3,-2.8));
#1751=CARTESIAN_POINT('Origin',(0.375,1.3,-3.2));
#1752=CARTESIAN_POINT('',(0.525,1.3,-3.2));
#1753=CARTESIAN_POINT('',(0.525,1.3,-10.));
#1754=CARTESIAN_POINT('',(0.375,1.3,-3.2));
#1755=CARTESIAN_POINT('Origin',(0.375,1.09968148428655,-3.2));
#1756=CARTESIAN_POINT('',(0.525,1.09968148428655,-3.2));
#1757=CARTESIAN_POINT('Origin',(0.525,1.19984074214327,-3.));
#1758=CARTESIAN_POINT('Origin',(0.1875,1.1,3.3));
#1759=CARTESIAN_POINT('',(0.375,1.1,3.5));
#1760=CARTESIAN_POINT('',(0.375,1.3,3.3));
#1761=CARTESIAN_POINT('Origin',(0.375,1.1,3.3));
#1762=CARTESIAN_POINT('',(-0.375,1.3,3.3));
#1763=CARTESIAN_POINT('',(0.1875,1.3,3.3));
#1764=CARTESIAN_POINT('',(-0.375,1.1,3.5));
#1765=CARTESIAN_POINT('Origin',(-0.375,1.1,3.3));
#1766=CARTESIAN_POINT('',(0.1875,1.1,3.5));
#1767=CARTESIAN_POINT('Origin',(0.,1.2,3.5));
#1768=CARTESIAN_POINT('',(-0.375,-5.4,3.5));
#1769=CARTESIAN_POINT('',(-0.375,1.1,3.5));
#1770=CARTESIAN_POINT('',(0.375,-5.4,3.5));
#1771=CARTESIAN_POINT('',(0.375,-5.4,3.5));
#1772=CARTESIAN_POINT('',(0.375,1.1,3.5));
#1773=CARTESIAN_POINT('Origin',(-0.375,1.1,2.));
#1774=CARTESIAN_POINT('',(-0.375,1.3,2.44946914047758));
#1775=CARTESIAN_POINT('',(-0.375,1.3,2.));
#1776=CARTESIAN_POINT('',(-0.375,1.29984074214327,2.45));
#1777=CARTESIAN_POINT('',(-0.375,1.39101704177956,2.14607900121238));
#1778=CARTESIAN_POINT('',(-0.375,1.1,2.45));
#1779=CARTESIAN_POINT('',(-0.375,1.21242037107164,2.45));
#1780=CARTESIAN_POINT('',(-0.375,1.1,2.80039317119492));
#1781=CARTESIAN_POINT('',(-0.375,1.1,2.));
#1782=CARTESIAN_POINT('',(-0.375,1.29968148428655,2.80039317119492));
#1783=CARTESIAN_POINT('',(-0.375,1.1,2.80039317119492));
#1784=CARTESIAN_POINT('',(-0.375,1.29968148428655,3.20039317119492));
#1785=CARTESIAN_POINT('',(-0.375,1.29968148428655,2.40019658559746));
#1786=CARTESIAN_POINT('',(-0.375,1.1,3.20039317119492));
#1787=CARTESIAN_POINT('',(-0.375,1.19984074214327,3.20039317119492));
#1788=CARTESIAN_POINT('',(-0.375,1.,3.30003109334561));
#1789=CARTESIAN_POINT('Origin',(-0.375,1.,3.20003109334561));
#1790=CARTESIAN_POINT('',(-0.375,-5.4,3.30003109334561));
#1791=CARTESIAN_POINT('',(-0.375,1.1,3.30003109334561));
#1792=CARTESIAN_POINT('',(-0.375,-5.4,3.5));
#1793=CARTESIAN_POINT('Origin',(-0.375,1.1,2.));
#1794=CARTESIAN_POINT('',(-0.375,1.1,3.20003109334561));
#1795=CARTESIAN_POINT('Origin',(-0.375,1.,3.20003109334561));
#1796=CARTESIAN_POINT('',(-0.375,1.1,2.));
#1797=CARTESIAN_POINT('Origin',(1.5266141931066E-16,1.,3.20003109334561));
#1798=CARTESIAN_POINT('',(0.375,1.1,3.20003109334561));
#1799=CARTESIAN_POINT('',(1.5266141931066E-16,1.1,3.20003109334561));
#1800=CARTESIAN_POINT('',(0.375,1.,3.30003109334561));
#1801=CARTESIAN_POINT('Origin',(0.375,1.,3.20003109334561));
#1802=CARTESIAN_POINT('',(1.89668853464832E-16,1.,3.30003109334561));
#1803=CARTESIAN_POINT('Origin',(-0.375,1.1,3.30003109334561));
#1804=CARTESIAN_POINT('',(0.375,-5.4,3.30003109334561));
#1805=CARTESIAN_POINT('',(0.375,1.1,3.30003109334561));
#1806=CARTESIAN_POINT('',(-0.375,-5.4,3.30003109334561));
#1807=CARTESIAN_POINT('Origin',(-6.93889390390723E-17,-5.4,3.40001554667281));
#1808=CARTESIAN_POINT('',(0.375,-5.4,3.2));
#1809=CARTESIAN_POINT('Origin',(0.375,1.1,2.));
#1810=CARTESIAN_POINT('',(-0.525,1.1,3.20039317119492));
#1811=CARTESIAN_POINT('',(-0.375,1.1,3.20039317119492));
#1812=CARTESIAN_POINT('',(-0.525,1.1,2.80039317119492));
#1813=CARTESIAN_POINT('',(-0.525,1.1,10.));
#1814=CARTESIAN_POINT('',(-0.375,1.1,2.80039317119492));
#1815=CARTESIAN_POINT('',(0.375,1.1,2.45));
#1816=CARTESIAN_POINT('',(0.1875,1.1,2.45));
#1817=CARTESIAN_POINT('',(0.375,1.1,2.8));
#1818=CARTESIAN_POINT('',(0.375,1.1,2.));
#1819=CARTESIAN_POINT('',(0.375,1.1,3.2));
#1820=CARTESIAN_POINT('',(0.375,1.1,2.5));
#1821=CARTESIAN_POINT('',(0.375,1.1,2.));
#1822=CARTESIAN_POINT('Origin',(0.375,1.3,2.));
#1823=CARTESIAN_POINT('',(0.375,1.3,3.2));
#1824=CARTESIAN_POINT('',(0.375,1.09968148428655,3.2));
#1825=CARTESIAN_POINT('',(0.375,1.3,2.));
#1826=CARTESIAN_POINT('Origin',(0.375,1.3,2.));
#1827=CARTESIAN_POINT('',(0.375,1.3,2.8));
#1828=CARTESIAN_POINT('',(0.375,1.3,2.8));
#1829=CARTESIAN_POINT('',(0.375,1.29984074214327,2.45));
#1830=CARTESIAN_POINT('',(0.375,1.18742037107164,2.45));
#1831=CARTESIAN_POINT('',(0.375,1.3,2.44946914047758));
#1832=CARTESIAN_POINT('',(0.375,1.3992739225135,2.11855606543256));
#1833=CARTESIAN_POINT('',(0.375,1.3,2.));
#1834=CARTESIAN_POINT('Origin',(-0.375,1.29968148428655,2.80039317119492));
#1835=CARTESIAN_POINT('',(-0.525,1.29968148428655,2.80039317119492));
#1836=CARTESIAN_POINT('',(-0.375,1.29968148428655,2.80039317119492));
#1837=CARTESIAN_POINT('',(-0.525,1.29968148428655,3.20039317119492));
#1838=CARTESIAN_POINT('',(-0.525,1.29968148428655,2.80039317119492));
#1839=CARTESIAN_POINT('',(-0.375,1.29968148428655,3.20039317119492));
#1840=CARTESIAN_POINT('Origin',(-0.375,1.1,2.80039317119492));
#1841=CARTESIAN_POINT('',(-0.525,1.1,2.80039317119492));
#1842=CARTESIAN_POINT('Origin',(-0.375,1.29968148428655,3.20039317119492));
#1843=CARTESIAN_POINT('',(-0.525,1.29968148428655,3.20039317119492));
#1844=CARTESIAN_POINT('Origin',(-0.525,1.19984074214327,3.00039317119492));
#1845=CARTESIAN_POINT('Origin',(0.2125,1.37484074214327,2.2));
#1846=CARTESIAN_POINT('',(0.525,1.44984074214327,1.95));
#1847=CARTESIAN_POINT('',(0.429502118644068,1.35434286078734,2.26832627118644));
#1848=CARTESIAN_POINT('',(-0.525,1.44984074214327,1.95));
#1849=CARTESIAN_POINT('',(0.425,1.44984074214327,1.95));
#1850=CARTESIAN_POINT('',(-0.422828389830509,1.34766913197378,2.29057203389831));
#1851=CARTESIAN_POINT('',(-0.08125,1.3,2.44946914047758));
#1852=CARTESIAN_POINT('Origin',(-0.45,1.32484074214327,2.2));
#1853=CARTESIAN_POINT('',(-0.375,1.09984074214327,2.45));
#1854=CARTESIAN_POINT('',(-0.525,0.949840742143273,1.95));
#1855=CARTESIAN_POINT('',(-0.429502118644068,1.04533862349921,2.26832627118644));
#1856=CARTESIAN_POINT('',(-0.375,1.32484074214327,2.45));
#1857=CARTESIAN_POINT('',(-0.525,1.44984074214327,1.95));
#1858=CARTESIAN_POINT('Origin',(-0.2125,1.02484074214327,2.2));
#1859=CARTESIAN_POINT('',(0.525,0.949840742143273,1.95));
#1860=CARTESIAN_POINT('',(-0.425,0.949840742143273,1.95));
#1861=CARTESIAN_POINT('',(0.375,1.09984074214327,2.45));
#1862=CARTESIAN_POINT('',(0.422828389830509,1.05201235231276,2.29057203389831));
#1863=CARTESIAN_POINT('',(-0.2125,1.09984074214327,2.45));
#1864=CARTESIAN_POINT('Origin',(0.45,1.07484074214327,2.2));
#1865=CARTESIAN_POINT('',(0.375,1.07484074214327,2.45));
#1866=CARTESIAN_POINT('',(0.525,0.949840742143273,1.95));
#1867=CARTESIAN_POINT('Origin',(0.,1.19984074214327,1.95));
#1868=CARTESIAN_POINT('Origin',(-3.46944695195361E-17,1.19984074214327,
2.45));
#1869=CARTESIAN_POINT('Origin',(0.375,1.19984074214327,3.));
#1870=CARTESIAN_POINT('',(0.375,1.09968148428655,2.8));
#1871=CARTESIAN_POINT('',(0.375,1.3,2.8));
#1872=CARTESIAN_POINT('',(0.375,1.09968148428655,3.2));
#1873=CARTESIAN_POINT('',(0.375,1.09968148428655,2.8));
#1874=CARTESIAN_POINT('',(0.375,1.09968148428655,3.2));
#1875=CARTESIAN_POINT('Origin',(0.375,1.09968148428655,2.8));
#1876=CARTESIAN_POINT('',(0.525,1.09968148428655,2.8));
#1877=CARTESIAN_POINT('',(0.375,1.09968148428655,2.8));
#1878=CARTESIAN_POINT('',(0.525,1.09968148428655,3.2));
#1879=CARTESIAN_POINT('',(0.525,1.09968148428655,2.8));
#1880=CARTESIAN_POINT('',(0.375,1.09968148428655,3.2));
#1881=CARTESIAN_POINT('Origin',(0.375,1.3,2.8));
#1882=CARTESIAN_POINT('',(0.525,1.3,2.8));
#1883=CARTESIAN_POINT('',(0.375,1.3,2.8));
#1884=CARTESIAN_POINT('',(0.525,1.3,2.8));
#1885=CARTESIAN_POINT('Origin',(0.375,1.3,3.2));
#1886=CARTESIAN_POINT('',(0.525,1.3,3.2));
#1887=CARTESIAN_POINT('',(0.375,1.3,3.2));
#1888=CARTESIAN_POINT('',(0.525,1.3,10.));
#1889=CARTESIAN_POINT('Origin',(0.375,1.09968148428655,3.2));
#1890=CARTESIAN_POINT('',(0.525,1.09968148428655,3.2));
#1891=CARTESIAN_POINT('Origin',(0.525,1.19984074214327,3.));
#1892=CARTESIAN_POINT('Origin',(0.,2.4,1.35513539202539));
#1893=CARTESIAN_POINT('',(-0.175,2.55,1.35513539202539));
#1894=CARTESIAN_POINT('Origin',(0.,2.55,1.35513539202539));
#1895=CARTESIAN_POINT('',(-0.175,2.4,1.35513539202539));
#1896=CARTESIAN_POINT('',(-0.175,2.4,1.35513539202539));
#1897=CARTESIAN_POINT('Origin',(0.,2.4,1.35513539202539));
#1898=CARTESIAN_POINT('Origin',(0.,2.55,1.35513539202539));
#1899=CARTESIAN_POINT('Origin',(0.,2.4,1.35513539202539));
#1900=CARTESIAN_POINT('Origin',(0.,2.4,0.));
#1901=CARTESIAN_POINT('',(-0.9,2.42,1.10218211923262E-16));
#1902=CARTESIAN_POINT('Origin',(0.,2.42,0.));
#1903=CARTESIAN_POINT('',(-0.9,2.4,1.10218211923262E-16));
#1904=CARTESIAN_POINT('',(-0.9,2.4,1.10218211923262E-16));
#1905=CARTESIAN_POINT('Origin',(0.,2.4,0.));
#1906=CARTESIAN_POINT('Origin',(0.,2.42,0.));
#1907=CARTESIAN_POINT('Origin',(0.,2.4,0.));
#1908=UNCERTAINTY_MEASURE_WITH_UNIT(LENGTH_MEASURE(0.01),#1912,
'DISTANCE_ACCURACY_VALUE',
'Maximum model space distance between geometric entities at asserted c
onnectivities');
#1909=UNCERTAINTY_MEASURE_WITH_UNIT(LENGTH_MEASURE(0.01),#1912,
'DISTANCE_ACCURACY_VALUE',
'Maximum model space distance between geometric entities at asserted c
onnectivities');
#1910=(
GEOMETRIC_REPRESENTATION_CONTEXT(3)
GLOBAL_UNCERTAINTY_ASSIGNED_CONTEXT((#1908))
GLOBAL_UNIT_ASSIGNED_CONTEXT((#1912,#1914,#1915))
REPRESENTATION_CONTEXT('','3D')
);
#1911=(
GEOMETRIC_REPRESENTATION_CONTEXT(3)
GLOBAL_UNCERTAINTY_ASSIGNED_CONTEXT((#1909))
GLOBAL_UNIT_ASSIGNED_CONTEXT((#1912,#1914,#1915))
REPRESENTATION_CONTEXT('','3D')
);
#1912=(
LENGTH_UNIT()
NAMED_UNIT(*)
SI_UNIT(.MILLI.,.METRE.)
);
#1913=(
LENGTH_UNIT()
NAMED_UNIT(*)
SI_UNIT(.CENTI.,.METRE.)
);
#1914=(
NAMED_UNIT(*)
PLANE_ANGLE_UNIT()
SI_UNIT($,.RADIAN.)
);
#1915=(
NAMED_UNIT(*)
SI_UNIT($,.STERADIAN.)
SOLID_ANGLE_UNIT()
);
#1916=SHAPE_DEFINITION_REPRESENTATION(#1917,#1918);
#1917=PRODUCT_DEFINITION_SHAPE('',$,#1920);
#1918=SHAPE_REPRESENTATION('',(#1191),#1910);
#1919=PRODUCT_DEFINITION_CONTEXT('part definition',#1924,'design');
#1920=PRODUCT_DEFINITION('KB109B','KB109B',#1921,#1919);
#1921=PRODUCT_DEFINITION_FORMATION('',$,#1926);
#1922=PRODUCT_RELATED_PRODUCT_CATEGORY('KB109B','KB109B',(#1926));
#1923=APPLICATION_PROTOCOL_DEFINITION('international standard',
'automotive_design',2009,#1924);
#1924=APPLICATION_CONTEXT(
'Core Data for Automotive Mechanical Design Process');
#1925=PRODUCT_CONTEXT('part definition',#1924,'mechanical');
#1926=PRODUCT('KB109B','KB109B',$,(#1925));
#1927=PRESENTATION_STYLE_ASSIGNMENT((#1928));
#1928=SURFACE_STYLE_USAGE(.BOTH.,#1931);
#1929=SURFACE_STYLE_RENDERING_WITH_PROPERTIES($,#1935,(#1930));
#1930=SURFACE_STYLE_TRANSPARENT(0.);
#1931=SURFACE_SIDE_STYLE('',(#1932,#1929));
#1932=SURFACE_STYLE_FILL_AREA(#1933);
#1933=FILL_AREA_STYLE('',(#1934));
#1934=FILL_AREA_STYLE_COLOUR('',#1935);
#1935=COLOUR_RGB('',0.749019607843137,0.749019607843137,0.749019607843137);
ENDSEC;
END-ISO-10303-21;
